<svg id="Livello_1" data-name="Livello 1" xmlns="http://www.w3.org/2000/svg" viewBox="0 0 70 70"><defs><style>.cls-1{fill:#221f20;}</style></defs><title>Tavola disegno 1 copia 5</title><path class="cls-1" d="M53.66,38.6V29.38c0-3.61-3.25-14.81-17.52-13.72a18.64,18.64,0,0,0-16.3,11.88s0,.05,0,.08a.94.94,0,0,0-.14.19c-.16.35-3.95,8.73-3.26,17.78a.83.83,0,0,0,.1.34V46a18.59,18.59,0,0,0,2.55,7,3.36,3.36,0,0,0,4,1.18l28.07-11.8A4.42,4.42,0,0,0,53.66,38.6ZM35.41,30.36A21,21,0,0,1,28,40.58a15.13,15.13,0,0,1-8.89,3.12,3.54,3.54,0,0,0-1,.13,39.57,39.57,0,0,1,2.49-13.58,2.21,2.21,0,0,0,1,.34,11.64,11.64,0,0,0,8.18-2.11,7.41,7.41,0,0,1,4-1.82C35.29,26.6,35.91,29,35.41,30.36Zm11,8.78a2.44,2.44,0,1,1,2.44-2.45,2.44,2.44,0,0,1-2.44,2.45Z"/></svg>