<svg id="Livello_1" data-name="Livello 1" xmlns="http://www.w3.org/2000/svg" viewBox="0 0 70 70"><defs><style>.cls-1{fill:#221f20;}</style></defs><title>Tavola disegno 1 copia 7</title><path class="cls-1" d="M46.58,23.56,45.16,26l-7.5-4.34,1.42-2.46Z"/><path class="cls-1" d="M31.34,40.36a.66.66,0,0,1,.74,1l-8.65,15,3.89-1.44a.16.16,0,0,0,.11-.14l.15-1.46a5.25,5.25,0,0,1,2.1-3.69l.09-.08a4,4,0,0,0,1.58-2.75A5.2,5.2,0,0,1,33.49,43a4,4,0,0,0,1.6-2.77v-.09a5.27,5.27,0,0,1,1.69-3.32,27.47,27.47,0,0,1-4.3-2.49,5.19,5.19,0,0,1-2,3.12l-.06,0a3.92,3.92,0,0,0-1.61,2.79s0,0,0,.07A5.24,5.24,0,0,1,26.62,44,4,4,0,0,0,25,46.79a.22.22,0,0,1,0,.08,5.3,5.3,0,0,1-2.12,3.64l-1.24.89a.18.18,0,0,0-.07.17l.7,4.1,8.66-15A.69.69,0,0,1,31.34,40.36Z"/><path class="cls-1" d="M38.57,14.42a2.7,2.7,0,0,0-2.59.7A26.8,26.8,0,0,0,28.8,27.54a2.71,2.71,0,0,0,.7,2.6,26.92,26.92,0,0,0,12.42,7.17,2.74,2.74,0,0,0,2.6-.7,26.92,26.92,0,0,0,7.17-12.42,2.71,2.71,0,0,0-.7-2.6A26.82,26.82,0,0,0,38.57,14.42Zm-4.7,8.82s-1.78,2.41-1.33,4.64a4.08,4.08,0,0,0,2.13,2.65.67.67,0,0,1,.18.92.66.66,0,0,1-.84.22,5.27,5.27,0,0,1-2.76-3.54c-.57-2.82,1.48-5.58,1.57-5.69a.66.66,0,0,1,1,.8Zm13.86,1-1.42,2.46a1.32,1.32,0,0,1-1.81.48h0L37,22.83A1.33,1.33,0,0,1,36.51,21h0l1.42-2.46a1.33,1.33,0,0,1,1.8-.48l7.51,4.33A1.33,1.33,0,0,1,47.73,24.22Z"/></svg>