<svg xmlns="http://www.w3.org/2000/svg" width="86.739" height="67.464" viewBox="0 0 86.739 67.464"><defs><style>.a{fill:#e07100;}</style></defs><path class="a" d="M62.645,56.094C62.645,42.782,48.625,32,31.323,32S0,42.782,0,56.094A20.43,20.43,0,0,0,5.722,69.948,33.9,33.9,0,0,1,.331,78.156a1.2,1.2,0,0,0-.226,1.31,1.179,1.179,0,0,0,1.1.723,26.515,26.515,0,0,0,13.357-3.765,38.318,38.318,0,0,0,16.761,3.765C48.625,80.189,62.645,69.406,62.645,56.094Zm18.372,33.13A20.4,20.4,0,0,0,86.739,75.37c0-10.074-8.057-18.7-19.471-22.3a22.38,22.38,0,0,1,.2,3.027c0,15.947-16.218,28.913-36.141,28.913a45.149,45.149,0,0,1-4.774-.286c4.744,8.659,15.887,14.743,28.868,14.743A38.108,38.108,0,0,0,72.177,95.7a26.515,26.515,0,0,0,13.357,3.765,1.187,1.187,0,0,0,1.1-.723,1.207,1.207,0,0,0-.226-1.31A33.534,33.534,0,0,1,81.017,89.224Z" transform="translate(0 -32)"/></svg>