<svg id="Livello_1" data-name="Livello 1" xmlns="http://www.w3.org/2000/svg" xmlns:xlink="http://www.w3.org/1999/xlink" viewBox="0 0 480.62 474.62"><defs><style>.cls-1,.cls-7{fill:none;}.cls-2{opacity:0.1;}.cls-3,.cls-5,.cls-6{fill:#fff;}.cls-4{clip-path:url(#clip-path);}.cls-5,.cls-6,.cls-7{stroke:#fff;}.cls-5{stroke-miterlimit:10;stroke-width:0.25px;}.cls-6,.cls-7{stroke-miterlimit:10;}.cls-6{stroke-width:0.25px;}.cls-8{fill:#483324;}</style><clipPath id="clip-path"><circle class="cls-1" cx="237.31" cy="237.31" r="236.81"/></clipPath></defs><title>footer-elemento-grafico</title><g id="Group_194" data-name="Group 194" class="cls-2"><g id="Group_187" data-name="Group 187"><path id="Path_287" data-name="Path 287" class="cls-3" d="M237.3,447C121.7,447,27.65,352.92,27.65,237.31S121.71,27.65,237.3,27.65,447,121.7,447,237.31,352.92,447,237.3,447ZM229.36,322.7h10.22v114c108.93-1.23,197.16-90.22,197.16-199.43,0-110-89.46-199.44-199.43-199.44S37.87,127.34,37.87,237.31c0,107.31,85.19,195.1,191.5,199.28Z"/></g><g id="Group_191" data-name="Group 191"><g class="cls-4"><g id="Group_190" data-name="Group 190"><g id="Group_188" data-name="Group 188"><rect id="Rectangle_24" data-name="Rectangle 24" class="cls-5" x="-45.32" y="222.5" width="533.47" height="1.9" transform="translate(-92.76 207.69) rotate(-42.39)"/></g><g id="Group_189" data-name="Group 189"><path id="Path_288" data-name="Path 288" class="cls-6" d="M480.29,305.61H1.16v-2.22H480.29ZM480.5,150H1.37v-2.23H480.49Z"/></g></g></g><path id="Path_290" data-name="Path 290" class="cls-7" d="M.5,237.31C.5,106.52,106.52.5,237.31.5s236.81,106,236.81,236.81-106,236.81-236.81,236.81S.5,368.1.5,237.31Z"/></g><g id="Group_192" data-name="Group 192"><path id="Path_291" data-name="Path 291" class="cls-3" d="M237.31,351.53A114.22,114.22,0,1,1,351.53,237.31,114.22,114.22,0,0,1,237.31,351.53Zm0-226.48A112.26,112.26,0,1,0,349.57,237.31h0A112.39,112.39,0,0,0,237.31,125.05Z"/></g><g id="Group_193" data-name="Group 193"><path id="Path_292" data-name="Path 292" class="cls-8" d="M237.31,390.57c-84.5,0-153.25-68.75-153.25-153.25S152.81,84.07,237.31,84.07s153.25,68.74,153.25,153.25S321.81,390.57,237.31,390.57Zm0-304.46c-83.38,0-151.21,67.83-151.21,151.21s67.83,151.2,151.21,151.2,151.21-67.83,151.21-151.2S320.68,86.1,237.31,86.1Z"/></g></g></svg>