<?xml version="1.0" encoding="utf-8"?>
<!-- Generator: Adobe Illustrator 22.0.1, SVG Export Plug-In . SVG Version: 6.00 Build 0)  -->
<svg version="1.1" id="Livello_1" xmlns="http://www.w3.org/2000/svg" xmlns:xlink="http://www.w3.org/1999/xlink" x="0px" y="0px"
	 viewBox="0 0 24 32" style="enable-background:new 0 0 24 32;" xml:space="preserve">
<style type="text/css">
	.st0{fill:#E07100;}
</style>
<path class="st0" d="M10.8,31C1.9,18.1,0.2,16.8,0.2,12.1C0.2,5.6,5.5,0.3,12,0.3s11.8,5.3,11.8,11.8c0,4.7-1.7,6.1-10.6,19
	c-0.5,0.7-1.4,0.8-2,0.4C11,31.3,10.9,31.2,10.8,31L10.8,31z M12,17c2.7,0,4.9-2.2,4.9-4.9c0-2.7-2.2-4.9-4.9-4.9
	c-2.7,0-4.9,2.2-4.9,4.9C7.1,14.8,9.3,17,12,17C12,17,12,17,12,17z"/>
</svg>
