<?xml version="1.0" encoding="utf-8"?>
<!-- Generator: Adobe Illustrator 22.0.1, SVG Export Plug-In . SVG Version: 6.00 Build 0)  -->
<svg version="1.1" id="Livello_1" xmlns="http://www.w3.org/2000/svg" xmlns:xlink="http://www.w3.org/1999/xlink" x="0px" y="0px"
	 viewBox="0 0 161 53.3" style="enable-background:new 0 0 161 53.3;" xml:space="preserve">
<style type="text/css">
	.st0{fill:#FFFFFF;}
	.st1{fill:#F49800;}
</style>
<g transform="translate(87.056 27.533)">
	<path class="st0" d="M-79.8,17.4h-4.4l2.2-4.6L-79.8,17.4L-79.8,17.4z M-76.2,21.1c-0.2-0.2-0.3-0.5-0.5-0.7
		c-0.2-0.3-0.4-0.7-0.5-1l-3.9-8h-2c0.1,0.1,0.2,0.2,0.3,0.3c0,0.1,0.1,0.2,0.2,0.3l-3.8,8c-0.2,0.4-0.4,0.7-0.7,1h1.3
		c0-0.2,0-0.3,0.1-0.5c0.1-0.3,0.2-0.6,0.3-0.8l0.8-1.6h5.1l0.7,1.4c0.2,0.4,0.3,0.7,0.4,0.9c0.1,0.2,0.1,0.5,0.1,0.7L-76.2,21.1z"
		/>
	<path class="st0" d="M-73,20.3c-0.3,0-0.4,0-0.5-0.2c-0.1-0.2-0.2-0.4-0.1-0.6v-6.6c0-0.5,0-1,0.1-1.5h-1.8c0.1,0.5,0.1,1,0.1,1.5
		v6.3c-0.1,0.5,0.1,1.1,0.4,1.5c0.5,0.3,1,0.4,1.5,0.4h4.8c0.5,0.1,0.9-0.1,1.3-0.4c0.3-0.4,0.4-1,0.3-1.5v-6c0-0.3,0-0.6,0-0.9
		c0-0.3,0-0.6,0.1-0.9h-1c0,0.4,0.1,0.7,0.1,0.8v7.3c0,0.2,0,0.4-0.1,0.6c-0.1,0.1-0.3,0.2-0.5,0.2L-73,20.3z"/>
	<path class="st0" d="M-62,12.2v7.4c0,0.5,0,1-0.1,1.5h1.8c-0.1-0.5-0.1-1-0.1-1.5v-7.4h1.5c0.3,0,0.7,0,1,0c0.3,0,0.5,0.1,0.8,0.1
		l-0.2-1h-7.8l-0.2,1c0.3,0,0.5-0.1,0.8-0.1c0.3,0,0.6,0,1,0L-62,12.2L-62,12.2z"/>
	<path class="st0" d="M-48.8,19.5c0,0.2,0,0.4-0.1,0.6c-0.1,0.1-0.3,0.2-0.5,0.2h-4.4c-0.3,0-0.5,0-0.5-0.2
		c-0.1-0.2-0.1-0.4-0.1-0.6V13c0-0.2,0-0.4,0.1-0.6c0.1-0.1,0.3-0.2,0.5-0.2h4.4c0.3,0,0.5,0,0.5,0.2c0.1,0.2,0.1,0.4,0.1,0.6
		L-48.8,19.5L-48.8,19.5z M-54,11.4c-0.6,0-1.1,0.1-1.5,0.5c-0.3,0.4-0.5,0.9-0.5,1.4v6c0,0.5,0.1,1,0.5,1.4c0.4,0.4,1,0.6,1.5,0.5
		h4.8c0.6,0.1,1.1-0.1,1.5-0.5c0.3-0.4,0.5-0.9,0.5-1.4v-6c0.1-0.9-0.5-1.7-1.4-1.9c-0.2,0-0.4,0-0.6,0H-54z"/>
	<path class="st0" d="M-44.3,21.1c0-0.2-0.1-0.4-0.1-0.7c0-0.2,0-0.5,0-0.8l0-7.3l3.8,8.7h1.5l3.8-8.7v7.1c0,0.5,0,1-0.1,1.5h1.8
		c-0.1-0.5-0.1-1-0.1-1.5v-6.3c0-0.3,0-0.6,0-0.9c0-0.3,0-0.6,0.1-0.9h-2.1l-3.8,8.6l-3.8-8.6h-2.1c0.1,0.8,0.1,1.5,0.1,2.3v4.8
		c0,0.7,0,1.3,0,1.7c0,0.3,0,0.7-0.1,1L-44.3,21.1z"/>
	<path class="st0" d="M-24.5,19.5c0,0.2,0,0.4-0.1,0.6c-0.1,0.1-0.3,0.2-0.5,0.2h-4.4c-0.3,0-0.5,0-0.5-0.2
		c-0.1-0.2-0.1-0.4-0.1-0.6V13c0-0.2,0-0.4,0.1-0.6c0.1-0.1,0.2-0.2,0.5-0.2h4.4c0.3,0,0.5,0,0.5,0.2c0.1,0.2,0.1,0.4,0.1,0.6
		L-24.5,19.5L-24.5,19.5z M-29.8,11.4c-0.6,0-1.1,0.1-1.5,0.5c-0.3,0.4-0.5,0.9-0.5,1.4v6c0,0.5,0.1,1,0.5,1.4
		c0.4,0.4,1,0.6,1.5,0.5h4.8c0.6,0.1,1.1-0.1,1.5-0.5c0.3-0.4,0.5-0.9,0.5-1.4v-6c0.1-0.9-0.5-1.7-1.4-1.9c-0.2,0-0.4,0-0.6,0H-29.8
		z"/>
	<path class="st0" d="M-19.5,12.2h4.9c0.3,0,0.5,0,0.5,0.2c0.1,0.2,0.1,0.4,0.1,0.6v2c0,0.2,0,0.4-0.1,0.6c-0.1,0.1-0.3,0.2-0.5,0.2
		h-4.9V12.2z M-19.5,16.4h4.9c0.3,0,0.5,0,0.5,0.2c0.1,0.2,0.1,0.4,0.1,0.6v2.3c0,0.2,0,0.4-0.1,0.6c-0.1,0.1-0.3,0.2-0.5,0.2h-4.9
		V16.4z M-21,19.6c0,0.3,0,0.6,0,0.9c0,0.2,0,0.4-0.1,0.6h6.6c0.6,0.1,1.2-0.1,1.7-0.4c0.4-0.4,0.5-1,0.5-1.5v-1.8
		c0-0.4-0.1-0.7-0.3-1c-0.3-0.2-0.6-0.3-1-0.3c0.4,0,0.7-0.1,1-0.3c0.2-0.3,0.3-0.6,0.3-1v-1.6c0.1-0.5-0.1-1.1-0.5-1.5
		c-0.5-0.3-1.1-0.4-1.7-0.4h-6.6l0.1,0.6c0,0.2,0,0.5,0,0.9L-21,19.6L-21,19.6z"/>
	<path class="st0" d="M-8.6,12.9c0-0.5,0-1,0.1-1.5h-1.8c0.1,0.5,0.1,1,0.1,1.5v6.7c0,0.5,0,1-0.1,1.5h1.8c-0.1-0.5-0.1-1-0.1-1.5
		V12.9L-8.6,12.9z"/>
	<path class="st0" d="M1.4,21.1l0.1-0.9c-0.2,0-0.5,0-0.7,0.1c-0.3,0-0.7,0-1.2,0h-4.3v-7.5c0-0.5,0-1,0.1-1.5h-1.8
		c0.1,0.5,0.1,1,0.1,1.5v6.7c0,0.5,0,1-0.1,1.5L1.4,21.1L1.4,21.1z"/>
	<path class="st0" d="M4.7,12.9c0-0.5,0-1,0.1-1.5H3c0.1,0.5,0.1,1,0.1,1.5v6.7c0,0.5,0,1-0.1,1.5h1.8c-0.1-0.5-0.1-1-0.1-1.5V12.9
		L4.7,12.9z"/>
	<path class="st0" d="M8.9,11.4c-0.6-0.1-1.2,0.1-1.7,0.4c-0.3,0.3-0.5,0.8-0.5,1.5v1.7c0,0.8,0.1,1.3,0.5,1.5
		c0.5,0.3,1.1,0.4,1.7,0.4h4c0.3,0,0.5,0,0.5,0.2c0.1,0.2,0.1,0.4,0.1,0.6v1.9c0,0.2,0,0.4-0.1,0.6c-0.1,0.1-0.3,0.2-0.5,0.2H8.8
		c-0.4,0-0.9,0-1.3,0c-0.2,0-0.4,0-0.6,0L7,21.1h6c0.6,0.1,1.2-0.1,1.7-0.4c0.4-0.4,0.5-1,0.5-1.5v-2c0.1-0.5-0.1-1.1-0.5-1.5
		c-0.5-0.3-1.1-0.4-1.7-0.4H9c-0.3,0-0.5,0-0.5-0.2c-0.1-0.2-0.1-0.4-0.1-0.6V13c0-0.2,0-0.4,0.1-0.6c0.1-0.1,0.3-0.2,0.5-0.2h4
		c0.4,0,0.9,0,1.3,0c0.2,0,0.4,0,0.6,0l-0.1-0.9L8.9,11.4z"/>
	<path class="st0" d="M19.5,12.2v7.4c0,0.5,0,1-0.1,1.5h1.8c-0.1-0.5-0.1-1-0.1-1.5v-7.4h1.5c0.3,0,0.7,0,1,0c0.3,0,0.5,0.1,0.8,0.1
		l-0.2-1h-7.8l-0.2,1c0.3,0,0.5-0.1,0.8-0.1c0.3,0,0.6,0,1,0L19.5,12.2L19.5,12.2z"/>
	<path class="st0" d="M27.4,12.9c0-0.5,0-1,0.1-1.5h-1.8c0.1,0.5,0.1,1,0.1,1.5v6.7c0,0.5,0,1-0.1,1.5h1.8c-0.1-0.5-0.1-1-0.1-1.5
		V12.9L27.4,12.9z"/>
	<path class="st0" d="M31.7,11.4c-0.6-0.1-1.2,0.1-1.7,0.4c-0.3,0.3-0.5,0.8-0.5,1.5v6c0,0.8,0.1,1.3,0.5,1.5
		c0.5,0.3,1.1,0.4,1.7,0.4H37l0.1-1c-0.7,0.1-1.4,0.2-2.1,0.2h-3.3c-0.3,0-0.5,0-0.5-0.2c-0.1-0.2-0.1-0.4-0.1-0.6V13
		c0-0.2,0-0.4,0.1-0.6c0.1-0.1,0.3-0.2,0.5-0.2h2.8c0.5,0,1,0,1.5,0c0.3,0,0.6,0.1,0.9,0.2l-0.1-1L31.7,11.4L31.7,11.4z"/>
	<path class="st0" d="M45.8,16.6v3c0,0.5,0,1-0.1,1.5h1.8c-0.1-0.5-0.1-1-0.1-1.5v-6.7c0-0.5,0-1,0.1-1.5h-1.8
		c0.1,0.5,0.1,1,0.1,1.5v2.8h-5.7v-2.9c0-0.5,0-1,0.1-1.5h-1.8c0.1,0.5,0.1,1,0.1,1.5v6.7c0,0.5,0,1-0.1,1.5h1.8
		c-0.1-0.5-0.1-1-0.1-1.5v-3L45.8,16.6L45.8,16.6z"/>
	<path class="st0" d="M49.4,11.4c0.1,0.5,0.1,1,0.1,1.5v6.7c0,0.5,0,1-0.1,1.5h7.4l0.1-0.9c-0.2,0-0.5,0-0.7,0.1c-0.3,0-0.7,0-1.2,0
		H51v-3.7h3.6c0.4,0,0.9,0,1.3,0c0.2,0,0.4,0,0.7,0v-1c-0.3,0-0.6,0-0.8,0.1c-0.2,0-0.6,0-1.1,0h-3.6v-3.7H55c0.4,0,0.9,0,1.3,0
		c0.2,0,0.4,0,0.6,0l-0.1-0.9L49.4,11.4z"/>
	<path class="st0" d="M-84.4,1.5V-3h5c0.3,0,0.5,0,0.5,0.2c0.1,0.2,0.1,0.4,0.1,0.6v2.9c0,0.2,0,0.4-0.1,0.6
		c-0.1,0.1-0.3,0.2-0.5,0.2H-84.4z M-77.2-1.9c0.1-0.5-0.1-1.1-0.5-1.5c-0.5-0.3-1.1-0.4-1.7-0.4h-6.7c0.1,0.5,0.1,1,0.1,1.5v6.7
		c0,0.5,0,1-0.1,1.5h1.8c-0.1-0.5-0.1-1-0.1-1.5V2.3h5.1c0.6,0.1,1.2-0.1,1.7-0.4c0.4-0.4,0.5-1,0.5-1.5L-77.2-1.9L-77.2-1.9z"/>
	<path class="st0" d="M-74.1-3h4.9c0.3,0,0.5,0,0.5,0.2c0.1,0.2,0.1,0.4,0.1,0.6v2.1c0,0.2,0,0.4-0.1,0.6c-0.1,0.1-0.3,0.2-0.5,0.2
		h-4.9V-3z M-70.4,1.5l2,4.4h1.8c-0.3-0.5-0.7-1.1-0.9-1.6c-0.3-0.6-0.7-1.6-1.3-2.8c0.5,0,1-0.1,1.4-0.4c0.3-0.4,0.5-1,0.4-1.5V-2
		c0.1-0.5-0.1-1.1-0.5-1.5c-0.5-0.3-1.1-0.4-1.7-0.4h-6.7c0.1,0.5,0.1,1,0.1,1.5v6.7c0,0.5,0,1-0.1,1.5h1.8c-0.1-0.5-0.1-1-0.1-1.5
		V1.4L-70.4,1.5L-70.4,1.5z"/>
	<path class="st0" d="M-58.9,2.1h-4.4l2.2-4.6L-58.9,2.1L-58.9,2.1z M-55.3,5.9c-0.2-0.2-0.3-0.5-0.5-0.7c-0.2-0.3-0.4-0.7-0.5-1
		l-3.9-8h-2c0.1,0.1,0.2,0.2,0.3,0.3c0,0.1,0.1,0.2,0.2,0.3l-3.8,8c-0.2,0.4-0.4,0.7-0.7,1h1.3c0-0.2,0-0.3,0.1-0.5
		c0.1-0.3,0.2-0.6,0.3-0.8l0.8-1.6h5.1l0.7,1.4c0.2,0.4,0.3,0.7,0.4,0.9c0.1,0.2,0.1,0.5,0.1,0.7L-55.3,5.9z"/>
	<path class="st0" d="M-51.7-3v7.4c0,0.5,0,1-0.1,1.5h1.8c-0.1-0.5-0.1-1-0.1-1.5V-3h1.5c0.3,0,0.7,0,1,0c0.3,0,0.5,0.1,0.8,0.1
		l-0.2-1h-7.8l-0.2,1c0.3,0,0.5-0.1,0.8-0.1c0.3,0,0.6,0,1,0H-51.7z"/>
	<path class="st0" d="M-43.8-2.3c0-0.5,0-1,0.1-1.5h-1.8c0.1,0.5,0.1,1,0.1,1.5v6.7c0,0.5,0,1-0.1,1.5h1.8c-0.1-0.5-0.1-1-0.1-1.5
		V-2.3L-43.8-2.3z"/>
	<path class="st0" d="M-39.5-3.8c-0.6-0.1-1.2,0.1-1.7,0.4c-0.3,0.3-0.5,0.8-0.5,1.5v6c0,0.8,0.1,1.3,0.5,1.5
		c0.5,0.3,1.1,0.4,1.7,0.4h5.3l0.1-1c-0.7,0.1-1.4,0.2-2.1,0.2h-3.3c-0.3,0-0.5,0-0.5-0.2c-0.1-0.2-0.1-0.4-0.1-0.6v-6.5
		c0-0.2,0-0.4,0.1-0.6C-39.9-3-39.8-3-39.5-3h2.8c0.5,0,1,0,1.5,0c0.3,0,0.6,0.1,0.9,0.2l-0.1-1L-39.5-3.8L-39.5-3.8z"/>
	<path class="st0" d="M-25.4,1.3v3c0,0.5,0,1-0.1,1.5h1.8c-0.1-0.5-0.1-1-0.1-1.5v-6.7c0-0.5,0-1,0.1-1.5h-1.8
		c0.1,0.5,0.1,1,0.1,1.5v2.8H-31v-2.8c0-0.5,0-1,0.1-1.5h-1.8c0.1,0.5,0.1,1,0.1,1.5v6.7c0,0.5,0,1-0.1,1.5h1.8
		c-0.1-0.5-0.1-1-0.1-1.5v-3L-25.4,1.3z"/>
	<path class="st0" d="M-21.8-3.8c0.1,0.5,0.1,1,0.1,1.5v6.7c0,0.5,0,1-0.1,1.5h7.4l0.1-0.9c-0.2,0-0.5,0-0.7,0.1c-0.2,0-0.7,0-1.2,0
		h-3.9V1.4h3.6c0.4,0,0.9,0,1.3,0c0.2,0,0.4,0,0.7,0v-1c-0.3,0-0.6,0-0.8,0.1c-0.2,0-0.6,0-1.1,0h-3.6V-3h3.9c0.4,0,0.9,0,1.3,0
		c0.2,0,0.4,0,0.6,0l-0.1-0.9L-21.8-3.8z"/>
	<path class="st1" d="M-79-17.3h-4.4l2.2-4.8L-79-17.3L-79-17.3z M-74.1-12.8c-0.2-0.2-0.4-0.5-0.5-0.8c-0.2-0.3-0.4-0.7-0.7-1.3
		l-4.3-9.1h-3c0,0,0.1,0.2,0.3,0.3c0.1,0.1,0.2,0.3,0.3,0.4l-4,8.8c-0.1,0.3-0.3,0.7-0.5,1l-0.5,0.8h1.8c0-0.2,0-0.5,0.1-0.7
		c0.1-0.3,0.2-0.6,0.3-0.8l0.8-1.8h5.5l0.7,1.5c0.1,0.3,0.3,0.6,0.3,0.9c0.1,0.2,0.1,0.5,0.2,0.7v0.3L-74.1-12.8L-74.1-12.8z"/>
	<path class="st1" d="M-62.3-12.8c-0.1-0.2-0.1-0.4-0.1-0.7v-4.4c0-0.5,0-1.1,0.1-1.6h-7.2v1.4c0.6-0.2,1.1-0.2,1.7-0.2h2.9v3.6
		c0,0.2,0,0.4-0.1,0.5c-0.1,0.1-0.3,0.2-0.5,0.2h-4.2c-0.3,0-0.5,0-0.5-0.2c-0.1-0.2-0.2-0.4-0.2-0.6v-7.3c0-0.2,0-0.4,0.2-0.6
		c0.1-0.1,0.3-0.2,0.5-0.2h5c0.4,0,0.7,0,1.1,0c0.3,0,0.6,0.1,0.9,0.2L-63-24h-7.8c-0.6,0-1.2,0.1-1.8,0.5c-0.4,0.5-0.6,1.1-0.5,1.7
		v7c-0.1,0.6,0.1,1.2,0.5,1.6c0.5,0.4,1.1,0.6,1.8,0.5h4.6c0.4,0,0.7,0,1-0.2c0.2-0.2,0.3-0.4,0.4-0.7l0.2,0.9L-62.3-12.8
		L-62.3-12.8z"/>
	<path class="st1" d="M-51.4-14.2c-0.6,0.2-1.3,0.2-1.9,0.2h-4.4v-3.9h3.9c0.7,0,1.3,0.1,2,0.2v-1.6c-0.7,0.2-1.3,0.2-2,0.2h-3.9
		v-3.8h4.4c0.6,0,1.3,0,1.9,0.2l-0.2-1.4h-8.8c0.1,0.2,0.1,0.5,0.1,0.8c0,0.3,0,0.5,0,0.9v8c0,0.3,0,0.6,0,0.9
		c0,0.3-0.1,0.5-0.1,0.8h8.8L-51.4-14.2L-51.4-14.2z"/>
	<path class="st1" d="M-38.9-22.1c0-0.3,0-0.7,0-1c0-0.3,0.1-0.6,0.2-1h-1.6c0.1,0.6,0.2,1.1,0.2,1.7l0,7.8l-6.3-9.5h-3.3
		c0.2,0.7,0.2,1.4,0.2,2.1v6.8c0,0.5,0,0.9,0,1.4c0,0.3-0.1,0.6-0.2,0.9h1.6c-0.1-0.6-0.2-1.1-0.2-1.7l0-7.8l6.3,9.5h3L-38.9-22.1
		L-38.9-22.1z"/>
	<path class="st1" d="M-26.7-24h-9.5l-0.2,1.4c0.6-0.2,1.3-0.2,2-0.2h4.1l-6.8,10.1h9.8l0.2-1.4c-0.6,0.2-1.3,0.2-2,0.2h-4.4
		L-26.7-24L-26.7-24z"/>
	<path class="st1" d="M-22.2-12.8c-0.1-0.2-0.1-0.5-0.2-0.8c0-0.3-0.1-0.6,0-0.9v-8c0-0.3,0-0.6,0-0.9c0-0.2,0.1-0.5,0.2-0.7h-2.9
		c0.1,0.2,0.1,0.5,0.2,0.8c0,0.3,0,0.5,0,0.9v8c0,0.3,0,0.6,0,0.9c0,0.2-0.1,0.5-0.2,0.7H-22.2z"/>
	<path class="st1" d="M-12.9-17.3h-4.4l2.2-4.8L-12.9-17.3L-12.9-17.3z M-7.9-12.8c-0.2-0.2-0.4-0.5-0.5-0.8
		c-0.2-0.3-0.4-0.7-0.7-1.3l-4.2-9.1h-3c0,0,0.1,0.2,0.3,0.3c0.1,0.1,0.2,0.3,0.3,0.4l-4,8.8c-0.1,0.3-0.3,0.7-0.5,1l-0.5,0.8h1.8
		c0-0.2,0-0.5,0.1-0.7c0.1-0.3,0.2-0.6,0.3-0.8l0.8-1.8h5.5l0.7,1.5c0.1,0.3,0.2,0.6,0.3,0.9c0.1,0.2,0.1,0.5,0.2,0.7v0.3L-7.9-12.8
		L-7.9-12.8z"/>
	<path class="st1" d="M7-19c0,0.4,0,0.7-0.2,0.8c-0.2,0.2-0.4,0.2-0.7,0.2H1.5v-4.8h4.7c0.2,0,0.5,0.1,0.7,0.2
		C6.9-22.5,7-22.3,7-21.8V-19z M6.9-16.9c0.7,0.1,1.4-0.1,2-0.5c0.5-0.4,0.7-1.1,0.6-1.7v-2.7c0.1-0.6-0.1-1.3-0.6-1.8
		c-0.6-0.4-1.3-0.6-2-0.5h-8.1c0.1,0.2,0.1,0.5,0.1,0.8c0,0.3,0,0.5,0,0.9v8c0,0.3,0,0.6,0,0.9c0,0.3-0.1,0.5-0.1,0.8h2.9
		c-0.1-0.2-0.1-0.5-0.1-0.8c0-0.3,0-0.5,0-0.9v-2.5L6.9-16.9z"/>
	<path class="st1" d="M20.1-14.2c-0.6,0.2-1.3,0.2-1.9,0.2h-4.4v-3.9h3.9c0.7,0,1.3,0.1,2,0.2v-1.6c-0.7,0.2-1.3,0.2-2,0.2h-3.9
		v-3.8h4.4c0.6,0,1.3,0,1.9,0.2L20-24h-8.8c0.1,0.2,0.1,0.5,0.1,0.8c0,0.3,0,0.5,0,0.9v8c0,0.3,0,0.6,0,0.9c0,0.3-0.1,0.5-0.1,0.8
		H20L20.1-14.2L20.1-14.2z"/>
	<path class="st1" d="M28.8-17.3h-4.4l2.2-4.8L28.8-17.3z M33.7-12.8c-0.2-0.2-0.4-0.5-0.5-0.8c-0.2-0.3-0.4-0.7-0.7-1.3L28.3-24h-3
		c0,0,0.1,0.2,0.2,0.3c0.1,0.1,0.2,0.3,0.2,0.4l-4,8.8c-0.1,0.3-0.3,0.7-0.5,1l-0.5,0.8h1.8c0-0.2,0-0.5,0.1-0.7
		c0.1-0.3,0.2-0.6,0.3-0.8l0.8-1.8h5.5l0.7,1.5c0.1,0.3,0.3,0.6,0.3,0.9c0.1,0.2,0.1,0.5,0.2,0.7v0.3L33.7-12.8L33.7-12.8z"/>
</g>
</svg>
