<?xml version="1.0" encoding="utf-8"?>
<!-- Generator: Adobe Illustrator 22.0.1, SVG Export Plug-In . SVG Version: 6.00 Build 0)  -->
<svg version="1.1" id="Livello_1" xmlns="http://www.w3.org/2000/svg" xmlns:xlink="http://www.w3.org/1999/xlink" x="0px" y="0px"
	 viewBox="0 0 161 53.4" style="enable-background:new 0 0 161 53.4;" xml:space="preserve">
<style type="text/css">
	.st0{fill:#FFFFFF;}
</style>
<g transform="translate(87.056 27.533)">
	<path class="st0" d="M-72.1,15.6h-3.9l1.9-4L-72.1,15.6L-72.1,15.6z M-68.9,18.9c-0.2-0.2-0.3-0.4-0.4-0.6
		c-0.2-0.3-0.3-0.6-0.4-0.9l-3.4-7h-1.7c0.1,0.1,0.2,0.2,0.3,0.3c0,0.1,0.1,0.1,0.2,0.3l-3.3,7c-0.2,0.3-0.4,0.6-0.6,0.9h1.1
		c0-0.1,0-0.3,0.1-0.4c0.1-0.2,0.2-0.5,0.3-0.7l0.7-1.4h4.5l0.6,1.2c0.1,0.3,0.3,0.6,0.3,0.8c0.1,0.2,0.1,0.4,0.1,0.6L-68.9,18.9z"
		/>
	<path class="st0" d="M-66.1,18.2c-0.2,0-0.4,0-0.4-0.1c-0.1-0.2-0.1-0.4-0.1-0.5v-5.8c0-0.4,0-0.9,0.1-1.3h-1.6
		c0.1,0.4,0.1,0.9,0.1,1.3v5.5c-0.1,0.5,0.1,0.9,0.4,1.3c0.4,0.3,0.9,0.4,1.3,0.3h4.2c0.4,0.1,0.8-0.1,1.1-0.3
		c0.2-0.4,0.3-0.8,0.3-1.3V12c0-0.3,0-0.5,0-0.8c0-0.3,0-0.5,0.1-0.8h-0.9c0,0.3,0.1,0.6,0.1,0.7v6.4c0,0.2,0,0.4-0.1,0.5
		c-0.1,0.1-0.2,0.1-0.5,0.1L-66.1,18.2z"/>
	<path class="st0" d="M-56.5,11.1v6.4c0,0.4,0,0.9-0.1,1.3h1.6c-0.1-0.4-0.1-0.9-0.1-1.3V11h1.3c0.3,0,0.6,0,0.9,0
		c0.2,0,0.5,0.1,0.7,0.1l-0.1-0.8h-6.8l-0.1,0.8c0.2,0,0.4-0.1,0.7-0.1c0.3,0,0.5,0,0.8,0L-56.5,11.1L-56.5,11.1z"/>
	<path class="st0" d="M-45,17.5c0,0.2,0,0.4-0.1,0.5c-0.1,0.1-0.3,0.1-0.5,0.1h-3.9c-0.3,0-0.4,0-0.5-0.1c-0.1-0.2-0.1-0.4-0.1-0.5
		v-5.7c0-0.2,0-0.4,0.1-0.5c0.1-0.1,0.2-0.1,0.4-0.1h3.9c0.3,0,0.4,0,0.5,0.1c0.1,0.2,0.1,0.4,0.1,0.5L-45,17.5L-45,17.5z
		 M-49.6,10.4c-0.5,0-1,0.1-1.3,0.4c-0.3,0.3-0.4,0.8-0.4,1.2v5.2c0,0.4,0.1,0.9,0.4,1.2c0.4,0.3,0.9,0.5,1.3,0.4h4.2
		c0.5,0.1,1-0.1,1.3-0.4c0.3-0.3,0.4-0.8,0.4-1.2V12c0.1-0.8-0.5-1.5-1.2-1.6c-0.2,0-0.3,0-0.5,0H-49.6z"/>
	<path class="st0" d="M-41.1,18.9c0-0.2-0.1-0.4-0.1-0.6c0-0.2,0-0.4,0-0.7l0-6.3l3.3,7.6h1.3l3.3-7.6v6.2c0,0.4,0,0.9-0.1,1.3h1.6
		c-0.1-0.4-0.1-0.9-0.1-1.3V12c0-0.3,0-0.5,0-0.8c0-0.3,0-0.5,0.1-0.8h-1.8l-3.3,7.5l-3.3-7.5H-42c0.1,0.7,0.1,1.3,0.1,2v4.2
		c0,0.6,0,1.1,0,1.5c0,0.3,0,0.6-0.1,0.9L-41.1,18.9z"/>
	<path class="st0" d="M-23.8,17.5c0,0.2,0,0.4-0.1,0.5c-0.1,0.1-0.3,0.1-0.5,0.1h-3.9c-0.3,0-0.4,0-0.5-0.1
		c-0.1-0.2-0.1-0.4-0.1-0.5v-5.7c0-0.2,0-0.4,0.1-0.5c0.1-0.1,0.2-0.1,0.4-0.1h3.9c0.3,0,0.4,0,0.5,0.1c0.1,0.2,0.1,0.4,0.1,0.5
		L-23.8,17.5L-23.8,17.5z M-28.4,10.4c-0.5,0-1,0.1-1.3,0.4c-0.3,0.3-0.4,0.8-0.4,1.2v5.2c0,0.4,0.1,0.9,0.4,1.2
		c0.4,0.3,0.9,0.5,1.3,0.4h4.2c0.5,0.1,1-0.1,1.3-0.4c0.3-0.3,0.4-0.8,0.4-1.2V12c0.1-0.8-0.5-1.5-1.2-1.6c-0.2,0-0.3,0-0.5,0H-28.4
		z"/>
	<path class="st0" d="M-19.4,11.1h4.3c0.3,0,0.4,0,0.5,0.1c0.1,0.2,0.1,0.4,0.1,0.5v1.7c0,0.2,0,0.4-0.1,0.5
		c-0.1,0.1-0.3,0.1-0.5,0.1h-4.3V11.1z M-19.4,14.7h4.3c0.3,0,0.4,0,0.5,0.1c0.1,0.2,0.1,0.4,0.1,0.5v2c0,0.2,0,0.4-0.1,0.5
		c-0.1,0.1-0.3,0.1-0.5,0.1h-4.3V14.7z M-20.8,17.5c0,0.3,0,0.5,0,0.8c0,0.2,0,0.4-0.1,0.5h5.8c0.5,0,1-0.1,1.5-0.3
		c0.3-0.4,0.5-0.8,0.4-1.3v-1.5c0-0.3-0.1-0.7-0.3-0.9c-0.3-0.2-0.6-0.3-0.9-0.3c0.3,0,0.6-0.1,0.9-0.3c0.2-0.2,0.3-0.6,0.3-0.9V12
		c0.1-0.5-0.1-0.9-0.4-1.3c-0.4-0.3-0.9-0.4-1.5-0.3h-5.8l0.1,0.5c0,0.2,0,0.4,0,0.8L-20.8,17.5L-20.8,17.5z"/>
	<path class="st0" d="M-10,11.7c0-0.4,0-0.9,0.1-1.3h-1.6c0.1,0.4,0.1,0.9,0.1,1.3v5.8c0,0.4,0,0.9-0.1,1.3h1.6
		C-9.9,18.4-10,18-10,17.5V11.7L-10,11.7z"/>
	<path class="st0" d="M-1.2,18.9l0.1-0.8c-0.2,0-0.4,0-0.6,0.1c-0.2,0-0.6,0-1,0h-3.8v-6.5c0-0.4,0-0.9,0.1-1.3H-8
		c0.1,0.4,0.1,0.9,0.1,1.3v5.8c0,0.4,0,0.9-0.1,1.3L-1.2,18.9L-1.2,18.9z"/>
	<path class="st0" d="M1.7,11.7c0-0.4,0-0.9,0.1-1.3H0.2c0.1,0.4,0.1,0.9,0.1,1.3v5.8c0,0.4,0,0.9-0.1,1.3h1.6
		c-0.1-0.4-0.1-0.9-0.1-1.3V11.7L1.7,11.7z"/>
	<path class="st0" d="M5.4,10.4c-0.5,0-1,0.1-1.5,0.3c-0.3,0.2-0.4,0.7-0.4,1.3v1.5c0,0.7,0.1,1.1,0.4,1.3c0.4,0.3,0.9,0.4,1.5,0.3
		h3.5c0.2,0,0.4,0,0.4,0.1c0.1,0.2,0.1,0.4,0.1,0.5v1.7c0,0.2,0,0.4-0.1,0.5c-0.1,0.1-0.3,0.2-0.4,0.1H5.2c-0.4,0-0.8,0-1.1,0
		c-0.2,0-0.3,0-0.5,0l0.1,0.8h5.2c0.5,0,1-0.1,1.5-0.3c0.3-0.4,0.5-0.8,0.4-1.3v-1.7c0.1-0.5-0.1-0.9-0.4-1.3
		c-0.4-0.3-0.9-0.4-1.5-0.3H5.4c-0.3,0-0.4,0-0.5-0.1c-0.1-0.2-0.1-0.4-0.1-0.5v-1.4c0-0.2,0-0.4,0.1-0.5c0.1-0.1,0.2-0.1,0.4-0.1
		h3.5c0.4,0,0.8,0,1.1,0c0.2,0,0.3,0,0.5,0l-0.1-0.8L5.4,10.4z"/>
	<path class="st0" d="M14.6,11.1v6.4c0,0.4,0,0.9-0.1,1.3h1.6C16,18.4,16,18,16,17.5V11h1.3c0.3,0,0.6,0,0.9,0
		c0.2,0,0.5,0.1,0.7,0.1l-0.1-0.8h-6.8l-0.1,0.8c0.2,0,0.4-0.1,0.7-0.1c0.3,0,0.5,0,0.8,0L14.6,11.1L14.6,11.1z"/>
	<path class="st0" d="M21.5,11.7c0-0.4,0-0.9,0.1-1.3H20c0.1,0.4,0.1,0.9,0.1,1.3v5.8c0,0.4,0,0.9-0.1,1.3h1.6
		c-0.1-0.4-0.1-0.9-0.1-1.3V11.7L21.5,11.7z"/>
	<path class="st0" d="M25.3,10.4c-0.5,0-1,0.1-1.5,0.3c-0.3,0.2-0.4,0.7-0.4,1.3v5.2c0,0.7,0.1,1.1,0.4,1.3c0.4,0.3,0.9,0.4,1.5,0.3
		h4.7L30,18c-0.6,0.1-1.2,0.2-1.8,0.1h-2.8c-0.3,0-0.4,0-0.5-0.1c-0.1-0.2-0.1-0.4-0.1-0.5v-5.7c0-0.2,0-0.4,0.1-0.5
		c0.1-0.1,0.2-0.1,0.4-0.1h2.5c0.4,0,0.9,0,1.3,0c0.3,0,0.5,0,0.8,0.1l-0.1-0.8L25.3,10.4L25.3,10.4z"/>
	<path class="st0" d="M37.6,14.9v2.7c0,0.4,0,0.9-0.1,1.3h1.6c-0.1-0.4-0.1-0.9-0.1-1.3v-5.8c0-0.4,0-0.9,0.1-1.3h-1.6
		c0.1,0.4,0.1,0.9,0.1,1.3v2.5h-5v-2.5c0-0.4,0-0.9,0.1-1.3h-1.6c0.1,0.4,0.1,0.9,0.1,1.3v5.8c0,0.4,0,0.9-0.1,1.3h1.6
		c-0.1-0.4-0.1-0.9-0.1-1.3v-2.7L37.6,14.9L37.6,14.9z"/>
	<path class="st0" d="M40.7,10.4c0.1,0.4,0.1,0.9,0.1,1.3v5.8c0,0.4,0,0.9-0.1,1.3h6.4l0.1-0.8c-0.2,0-0.4,0-0.6,0.1
		c-0.2,0-0.6,0-1,0h-3.4V15h3.1c0.4,0,0.8,0,1.2,0c0.2,0,0.4,0,0.6,0v-0.9c-0.3,0-0.5,0-0.7,0.1c-0.2,0-0.5,0-1,0h-3.1v-3.2h3.4
		c0.4,0,0.8,0,1.1,0c0.2,0,0.3,0,0.5,0l-0.1-0.8L40.7,10.4z"/>
	<path class="st0" d="M-76.1,1.7v-3.9h4.4c0.3,0,0.4,0,0.5,0.1c0.1,0.2,0.1,0.4,0.1,0.5V1c0,0.2,0,0.4-0.1,0.5
		c-0.1,0.1-0.3,0.1-0.5,0.1H-76.1z M-69.8-1.2c0.1-0.5-0.1-0.9-0.4-1.3c-0.4-0.3-0.9-0.4-1.5-0.3h-5.9c0.1,0.4,0.1,0.9,0.1,1.3v5.8
		c0,0.4,0,0.9-0.1,1.3h1.6c-0.1-0.4-0.1-0.9-0.1-1.3V2.4h4.4c0.5,0,1-0.1,1.5-0.3c0.3-0.4,0.5-0.8,0.4-1.3L-69.8-1.2L-69.8-1.2z"/>
	<path class="st0" d="M-67.1-2.2h4.3c0.3,0,0.4,0,0.5,0.1c0.1,0.2,0.1,0.4,0.1,0.5v1.9c0,0.2,0,0.4-0.1,0.5C-62.4,1-62.6,1-62.8,1
		h-4.3V-2.2z M-63.9,1.7l1.8,3.9h1.5c-0.3-0.5-0.6-0.9-0.8-1.4c-0.3-0.5-0.6-1.4-1.1-2.4c0.4,0,0.9-0.1,1.2-0.3
		c0.3-0.4,0.4-0.8,0.4-1.3v-1.3c0.1-0.5-0.1-0.9-0.4-1.3c-0.4-0.3-0.9-0.4-1.5-0.3h-5.8c0.1,0.4,0.1,0.9,0.1,1.3v5.8
		c0,0.4,0,0.9-0.1,1.3h1.6c-0.1-0.4-0.1-0.9-0.1-1.3V1.7L-63.9,1.7L-63.9,1.7z"/>
	<path class="st0" d="M-53.8,2.3h-3.9l1.9-4L-53.8,2.3L-53.8,2.3z M-50.7,5.6C-50.9,5.4-51,5.2-51.1,5c-0.2-0.3-0.3-0.6-0.4-0.9
		l-3.4-7h-1.7c0.1,0.1,0.2,0.2,0.3,0.3c0,0.1,0.1,0.1,0.2,0.3l-3.3,7c-0.2,0.3-0.4,0.6-0.6,0.9h1.1c0-0.1,0-0.3,0.1-0.4
		c0.1-0.2,0.2-0.5,0.3-0.7L-58,3h4.5l0.6,1.2c0.1,0.3,0.3,0.6,0.3,0.8c0.1,0.2,0.1,0.4,0.1,0.6L-50.7,5.6z"/>
	<path class="st0" d="M-47.6-2.2v6.5c0,0.4,0,0.9-0.1,1.3h1.6c-0.1-0.4-0.1-0.9-0.1-1.3v-6.5h1.3c0.3,0,0.6,0,0.9,0
		c0.2,0,0.5,0.1,0.7,0.1l-0.1-0.8h-6.8l-0.1,0.8c0.2,0,0.4-0.1,0.7-0.1c0.3,0,0.5,0,0.8,0H-47.6z"/>
	<path class="st0" d="M-40.7-1.6c0-0.4,0-0.9,0.1-1.3h-1.6C-42-2.4-42-2-42-1.6v5.8c0,0.4,0,0.9-0.1,1.3h1.6
		c-0.1-0.4-0.1-0.9-0.1-1.3V-1.6L-40.7-1.6z"/>
	<path class="st0" d="M-36.9-2.9c-0.5,0-1,0.1-1.5,0.3c-0.3,0.2-0.4,0.7-0.4,1.3v5.2c0,0.7,0.1,1.1,0.4,1.3c0.4,0.3,0.9,0.4,1.5,0.3
		h4.6l0.1-0.8c-0.6,0.1-1.2,0.2-1.8,0.1h-2.8c-0.3,0-0.4,0-0.5-0.1c-0.1-0.2-0.1-0.4-0.1-0.5v-5.7c0-0.2,0-0.4,0.1-0.5
		c0.1-0.1,0.2-0.1,0.4-0.1h2.5c0.4,0,0.9,0,1.3,0c0.3,0,0.5,0,0.8,0.1l-0.1-0.8L-36.9-2.9L-36.9-2.9z"/>
	<path class="st0" d="M-24.6,1.6v2.7c0,0.4,0,0.9-0.1,1.3h1.6c-0.1-0.4-0.1-0.9-0.1-1.3v-5.8c0-0.4,0-0.9,0.1-1.3h-1.6
		c0.1,0.4,0.1,0.9,0.1,1.3v2.5h-5v-2.5c0-0.4,0-0.9,0.1-1.3H-31c0.1,0.4,0.1,0.9,0.1,1.3v5.8c0,0.4,0,0.9-0.1,1.3h1.6
		c-0.1-0.4-0.1-0.9-0.1-1.3V1.6L-24.6,1.6z"/>
	<path class="st0" d="M-21.5-2.9c0.1,0.4,0.1,0.9,0.1,1.3v5.8c0,0.4,0,0.9-0.1,1.3h6.4l0.1-0.8c-0.2,0-0.4,0-0.6,0.1
		c-0.2,0-0.6,0-1,0H-20V1.7h3.1c0.4,0,0.8,0,1.2,0c0.2,0,0.4,0,0.6,0V0.9c-0.3,0-0.5,0-0.7,0.1c-0.2,0-0.5,0-1,0H-20v-3.2h3.4
		c0.4,0,0.8,0,1.1,0c0.2,0,0.3,0,0.5,0L-15-2.9L-21.5-2.9z"/>
	<path class="st0" d="M-71.4-14.6h-3.9l1.9-4.2L-71.4-14.6L-71.4-14.6z M-67.1-10.7c-0.2-0.2-0.3-0.4-0.5-0.7
		c-0.1-0.3-0.3-0.6-0.6-1.2l-3.7-8h-2.6c0,0,0.1,0.1,0.2,0.3c0.1,0.1,0.1,0.2,0.2,0.3l-3.5,7.7c-0.1,0.3-0.3,0.6-0.4,0.8l-0.4,0.7
		h1.6c0-0.2,0-0.4,0.1-0.6c0.1-0.3,0.1-0.5,0.3-0.7l0.7-1.6h4.8l0.6,1.3c0.1,0.3,0.2,0.5,0.3,0.8c0.1,0.2,0.1,0.4,0.1,0.6v0.2
		L-67.1-10.7L-67.1-10.7z"/>
	<path class="st0" d="M-56.8-10.7c-0.1-0.2-0.1-0.4-0.1-0.6v-3.8c0-0.5,0-1,0.1-1.4h-6.3v1.2c0.5-0.1,1-0.2,1.5-0.2h2.5v3.2
		c0,0.2,0,0.3-0.1,0.5c-0.1,0.1-0.2,0.1-0.4,0.1h-3.6c-0.2,0-0.4,0-0.5-0.1c-0.1-0.2-0.2-0.4-0.1-0.5v-6.4c0-0.2,0-0.4,0.1-0.5
		c0.1-0.1,0.3-0.1,0.5-0.1h4.3c0.3,0,0.6,0,0.9,0c0.3,0,0.5,0.1,0.8,0.2l-0.1-1.2h-6.8c-0.5,0-1.1,0.1-1.5,0.4
		c-0.3,0.4-0.5,0.9-0.4,1.5v6.1c-0.1,0.5,0.1,1,0.4,1.4c0.4,0.3,1,0.5,1.5,0.4h4c0.3,0,0.6,0,0.9-0.1c0.2-0.2,0.3-0.4,0.3-0.6
		l0.1,0.8L-56.8-10.7L-56.8-10.7z"/>
	<path class="st0" d="M-47.3-11.9c-0.5,0.1-1.1,0.2-1.7,0.2h-3.8v-3.4h3.4c0.6,0,1.2,0,1.7,0.2v-1.4c-0.6,0.1-1.2,0.2-1.7,0.2h-3.4
		v-3.3h3.8c0.6,0,1.1,0,1.7,0.2l-0.1-1.2h-7.7c0.1,0.2,0.1,0.4,0.1,0.7c0,0.2,0,0.5,0,0.8v7c0,0.3,0,0.5,0,0.8
		c0,0.2-0.1,0.4-0.1,0.7h7.7L-47.3-11.9L-47.3-11.9z"/>
	<path class="st0" d="M-36.4-18.8c0-0.3,0-0.6,0-0.9c0-0.3,0.1-0.6,0.1-0.8h-1.4c0.1,0.5,0.2,1,0.2,1.5l0,6.8l-5.5-8.3h-2.8
		c0.1,0.6,0.2,1.2,0.2,1.8v6c0,0.4,0,0.8,0,1.2c0,0.3-0.1,0.5-0.1,0.8h1.4c-0.1-0.5-0.2-1-0.1-1.5l0-6.8l5.5,8.3h2.6L-36.4-18.8
		L-36.4-18.8z"/>
	<path class="st0" d="M-25.8-20.5H-34l-0.2,1.2c0.6-0.1,1.1-0.2,1.7-0.2h3.6l-5.9,8.8h8.6l0.2-1.2c-0.6,0.1-1.1,0.2-1.7,0.2h-3.9
		L-25.8-20.5L-25.8-20.5z"/>
	<path class="st0" d="M-21.8-10.7c-0.1-0.2-0.1-0.4-0.1-0.7c0-0.3,0-0.5,0-0.8v-7c0-0.3,0-0.5,0-0.8c0-0.2,0.1-0.4,0.1-0.6h-2.5
		c0.1,0.2,0.1,0.4,0.1,0.7c0,0.2,0,0.5,0,0.8v7c0,0.3,0,0.5,0,0.8c0,0.2-0.1,0.4-0.1,0.6H-21.8z"/>
	<path class="st0" d="M-13.6-14.6h-3.9l1.9-4.2L-13.6-14.6L-13.6-14.6z M-9.3-10.7c-0.2-0.2-0.3-0.4-0.5-0.7
		c-0.1-0.3-0.3-0.6-0.6-1.2l-3.7-8h-2.6c0,0,0.1,0.1,0.2,0.3c0.1,0.1,0.1,0.2,0.2,0.3l-3.5,7.7c-0.1,0.3-0.3,0.6-0.4,0.8l-0.4,0.7
		h1.6c0-0.2,0-0.4,0.1-0.6c0.1-0.3,0.1-0.5,0.3-0.7l0.7-1.6h4.8l0.6,1.3c0.1,0.3,0.2,0.5,0.3,0.8c0.1,0.2,0.1,0.4,0.1,0.6v0.2
		L-9.3-10.7L-9.3-10.7z"/>
	<path class="st0" d="M3.7-16.2c0,0.3,0,0.6-0.1,0.7c-0.2,0.1-0.4,0.2-0.6,0.2h-4.1v-4.2h4.1c0.2,0,0.4,0,0.6,0.2
		c0.1,0.1,0.1,0.3,0.1,0.7V-16.2z M3.6-14.3c0.6,0.1,1.2-0.1,1.7-0.4c0.4-0.4,0.6-0.9,0.5-1.5v-2.3c0.1-0.6-0.1-1.1-0.5-1.5
		c-0.5-0.3-1.1-0.5-1.7-0.4h-7.1c0.1,0.2,0.1,0.4,0.1,0.7c0,0.2,0,0.5,0,0.8v7c0,0.3,0,0.5,0,0.8c0,0.2-0.1,0.4-0.1,0.7H-1
		C-1-11-1.1-11.2-1.1-11.4c0-0.2,0-0.5,0-0.8v-2.1L3.6-14.3z"/>
	<path class="st0" d="M15.2-11.9c-0.5,0.1-1.1,0.2-1.7,0.2H9.7v-3.4H13c0.6,0,1.2,0,1.7,0.2v-1.4c-0.6,0.1-1.2,0.2-1.7,0.2H9.7v-3.3
		h3.8c0.6,0,1.1,0,1.7,0.2L15-20.5H7.3c0.1,0.2,0.1,0.4,0.1,0.7c0,0.2,0,0.5,0,0.8v7c0,0.3,0,0.5,0,0.8c0,0.2-0.1,0.4-0.1,0.7H15
		L15.2-11.9L15.2-11.9z"/>
	<path class="st0" d="M22.7-14.6h-3.9l1.9-4.2L22.7-14.6z M27-10.7c-0.2-0.2-0.3-0.4-0.5-0.7c-0.1-0.3-0.3-0.6-0.6-1.2l-3.7-8h-2.6
		c0,0,0.1,0.1,0.2,0.3c0.1,0.1,0.1,0.2,0.2,0.3l-3.5,7.7c-0.1,0.3-0.3,0.6-0.4,0.8l-0.4,0.7h1.6c0-0.2,0-0.4,0.1-0.6
		c0.1-0.3,0.1-0.5,0.3-0.7l0.7-1.6h4.8l0.6,1.3c0.1,0.3,0.2,0.5,0.3,0.8c0.1,0.2,0.1,0.4,0.1,0.6v0.2L27-10.7L27-10.7z"/>
</g>
</svg>
