<svg xmlns="http://www.w3.org/2000/svg" xmlns:xlink="http://www.w3.org/1999/xlink" width="161" height="80.264" viewBox="0 0 161 80.264"><defs><style>.a,.b{fill:#fff;}.a,.c,.g{fill-rule:evenodd;}.c,.d{fill:#f49800;}.e{clip-path:url(#a);}.f,.g{fill:#5b4330;}</style><clipPath id="a"><path d="M0,40.132A40.132,40.132,0,1,1,40.132,80.264,40.144,40.144,0,0,1,0,40.132Z"/></clipPath></defs><g transform="translate(87.056 27.533)"><path class="a" d="M410.207,216.464h-2.271l1.136-2.378,1.136,2.378Zm1.843,1.928a1.526,1.526,0,0,1-.236-.364,4.209,4.209,0,0,1-.257-.536l-1.993-4.093h-1.007a.971.971,0,0,1,.15.15c.021.043.064.086.107.15l-1.971,4.135a2.566,2.566,0,0,1-.343.536h.643a1.076,1.076,0,0,1,.043-.257,3.419,3.419,0,0,1,.171-.429l.407-.836H410.4l.343.728q.129.289.193.45a1,1,0,0,1,.064.364Z" transform="translate(-406.457 -195.209)"/><path class="b" d="M435.779,217.985c-.129,0-.214-.021-.257-.086a.509.509,0,0,1-.064-.321v-3.407a3.426,3.426,0,0,1,.064-.771H434.6a3.7,3.7,0,0,1,.064.771v3.257a.981.981,0,0,0,.214.75,1.223,1.223,0,0,0,.793.193h2.464a.845.845,0,0,0,.664-.193,1.238,1.238,0,0,0,.171-.75v-3.085a3.3,3.3,0,0,1,.022-.471,1.913,1.913,0,0,1,.064-.471h-.514c.021.193.064.343.064.429v3.75a.553.553,0,0,1-.064.321c-.043.064-.129.086-.279.086Z" transform="translate(-428.536 -195.209)"/><path class="b" d="M460.193,213.729v3.793a3.427,3.427,0,0,1-.064.771h.921a3.694,3.694,0,0,1-.064-.771v-3.814h.75a3.793,3.793,0,0,1,.514.021,2.312,2.312,0,0,1,.407.064l-.086-.493h-3.985l-.086.493c.129-.021.257-.043.429-.064.15,0,.321-.021.493-.021h.771Z" transform="translate(-447.315 -195.13)"/><path class="a" d="M484.407,217.578a.553.553,0,0,1-.064.321c-.043.064-.15.086-.278.086h-2.271c-.15,0-.236-.021-.278-.086a.92.92,0,0,1-.064-.321v-3.364a.508.508,0,0,1,.064-.321c.043-.064.129-.086.257-.086h2.271c.15,0,.236.021.279.086a.6.6,0,0,1,.064.321v3.364Zm-2.678-4.178a1.129,1.129,0,0,0-.793.236,1.041,1.041,0,0,0-.236.707v3.085a.945.945,0,0,0,.236.707,1.036,1.036,0,0,0,.793.257h2.443a1,1,0,0,0,.793-.257,1.041,1.041,0,0,0,.236-.707v-3.085a.851.851,0,0,0-1.028-.943Z" transform="translate(-464.759 -195.209)"/><path class="b" d="M506.657,218.392a1.865,1.865,0,0,1-.043-.343c0-.107-.021-.236-.021-.386l.021-3.728,1.971,4.457h.75l1.971-4.457V217.6a3.427,3.427,0,0,1-.064.771h.921a3.7,3.7,0,0,1-.064-.771v-3.257a3.318,3.318,0,0,1,.021-.471,1.908,1.908,0,0,1,.064-.471h-1.071l-1.929,4.435-1.971-4.435h-1.093a7.585,7.585,0,0,1,.064,1.178v2.443c0,.343,0,.643-.021.857a2.335,2.335,0,0,1-.064.514Z" transform="translate(-484.716 -195.209)"/><path class="a" d="M542.528,217.578a.552.552,0,0,1-.064.321c-.043.064-.15.086-.278.086h-2.271c-.15,0-.236-.021-.279-.086a.922.922,0,0,1-.064-.321v-3.364a.509.509,0,0,1,.064-.321c.043-.064.128-.086.257-.086h2.271c.15,0,.236.021.279.086a.6.6,0,0,1,.064.321v3.364Zm-2.7-4.178a1.129,1.129,0,0,0-.793.236,1.041,1.041,0,0,0-.236.707v3.085a.945.945,0,0,0,.236.707,1.036,1.036,0,0,0,.793.257h2.443a1,1,0,0,0,.793-.257,1.041,1.041,0,0,0,.236-.707v-3.085a.852.852,0,0,0-1.029-.943Z" transform="translate(-510.41 -195.209)"/><path class="a" d="M565.078,213.729h2.507c.15,0,.236.021.279.086a.6.6,0,0,1,.064.321v1.007a.552.552,0,0,1-.064.321c-.043.064-.15.086-.279.086h-2.507v-1.821Zm0,2.164h2.507c.15,0,.236.021.279.086a.6.6,0,0,1,.064.321v1.2a.552.552,0,0,1-.064.321c-.043.064-.15.086-.279.086h-2.507v-2.014Zm-.793,1.628a2.607,2.607,0,0,1-.021.45.783.783,0,0,1-.064.321h3.407a1.444,1.444,0,0,0,.857-.193,1,1,0,0,0,.236-.771v-.9a.729.729,0,0,0-.15-.536.816.816,0,0,0-.514-.15.7.7,0,0,0,.514-.15.642.642,0,0,0,.15-.514v-.814a1,1,0,0,0-.236-.771,1.444,1.444,0,0,0-.857-.193H564.2l.064.321c0,.107.021.257.021.45v3.45Z" transform="translate(-530.367 -195.13)"/><path class="b" d="M591.157,214.171a3.423,3.423,0,0,1,.064-.771H590.3a3.7,3.7,0,0,1,.064.771V217.6a3.426,3.426,0,0,1-.064.771h.921a3.694,3.694,0,0,1-.064-.771v-3.428Z" transform="translate(-550.875 -195.209)"/><path class="b" d="M603.785,218.392l.043-.45c-.107.021-.236.021-.364.043-.129,0-.343.021-.6.021h-2.207v-3.835a3.431,3.431,0,0,1,.064-.771H599.8a3.7,3.7,0,0,1,.064.771V217.6a3.427,3.427,0,0,1-.064.771h3.985Z" transform="translate(-558.34 -195.209)"/><path class="b" d="M623.057,214.171a3.423,3.423,0,0,1,.064-.771H622.2a3.706,3.706,0,0,1,.064.771V217.6a3.434,3.434,0,0,1-.064.771h.921a3.694,3.694,0,0,1-.064-.771v-3.428Z" transform="translate(-575.94 -195.209)"/><path class="b" d="M632.393,213.4a1.444,1.444,0,0,0-.857.193c-.171.129-.236.386-.236.771v.857c0,.386.064.643.236.771a1.4,1.4,0,0,0,.857.193h2.035c.129,0,.236.021.257.086a.6.6,0,0,1,.064.321v.986a.553.553,0,0,1-.064.321.313.313,0,0,1-.257.086h-2.121a5.858,5.858,0,0,1-.664-.021,2.213,2.213,0,0,0-.3-.021l.064.45h3.064a1.444,1.444,0,0,0,.857-.193,1,1,0,0,0,.236-.771v-1.007a1,1,0,0,0-.236-.771,1.4,1.4,0,0,0-.857-.193h-2.036c-.15,0-.236-.021-.278-.086a.923.923,0,0,1-.064-.321v-.836a.508.508,0,0,1,.064-.321c.043-.064.129-.086.257-.086h2.057a5.645,5.645,0,0,1,.664.021,2.037,2.037,0,0,0,.3.021l-.064-.45Z" transform="translate(-583.09 -195.209)"/><path class="b" d="M655.593,213.729v3.793a3.434,3.434,0,0,1-.064.771h.921a3.7,3.7,0,0,1-.064-.771v-3.814h.75a3.793,3.793,0,0,1,.514.021,2.313,2.313,0,0,1,.407.064l-.086-.493h-3.985l-.086.493c.129-.021.257-.043.429-.064.15,0,.321-.021.493-.021h.771Z" transform="translate(-600.848 -195.13)"/><path class="b" d="M677.557,214.171a3.423,3.423,0,0,1,.064-.771H676.7a3.706,3.706,0,0,1,.064.771V217.6a3.434,3.434,0,0,1-.064.771h.921a3.694,3.694,0,0,1-.064-.771v-3.428Z" transform="translate(-618.762 -195.209)"/><path class="b" d="M686.993,213.4a1.444,1.444,0,0,0-.857.193c-.172.129-.236.386-.236.771v3.064c0,.386.064.643.236.771a1.4,1.4,0,0,0,.857.193h2.742l.043-.493a4.542,4.542,0,0,1-1.071.086h-1.671c-.15,0-.236-.021-.279-.086a.925.925,0,0,1-.064-.321v-3.364a.51.51,0,0,1,.064-.321c.043-.064.129-.086.257-.086h1.457a7.146,7.146,0,0,1,.75.021,1.194,1.194,0,0,1,.45.086l-.043-.493h-2.635Z" transform="translate(-625.991 -195.209)"/><path class="b" d="M711.071,216.057v1.564a3.426,3.426,0,0,1-.064.771h.921a3.711,3.711,0,0,1-.064-.771v-3.428a3.44,3.44,0,0,1,.064-.771h-.921a3.7,3.7,0,0,1,.064.771v1.457h-2.914v-1.478a3.44,3.44,0,0,1,.064-.771H707.3a3.707,3.707,0,0,1,.064.771V217.6a3.435,3.435,0,0,1-.064.771h.921a3.712,3.712,0,0,1-.064-.771v-1.564h2.914Z" transform="translate(-642.806 -195.209)"/><path class="b" d="M733.4,213.4a3.7,3.7,0,0,1,.064.771V217.6a3.426,3.426,0,0,1-.064.771h3.792l.043-.45c-.107.021-.236.021-.364.043-.129,0-.343.021-.6.021h-2.014V216.1H736.1a6.46,6.46,0,0,1,.686.021,2.914,2.914,0,0,0,.343.021v-.514c-.171.021-.321.021-.428.043-.107,0-.321.021-.579.021h-1.843v-1.886h2.014a5.843,5.843,0,0,1,.664.021,2.206,2.206,0,0,0,.3.021l-.043-.45Z" transform="translate(-663.313 -195.209)"/><path class="a" d="M409.536,179.7v-2.314h2.571c.15,0,.236.021.279.086a.6.6,0,0,1,.064.321v1.5a.553.553,0,0,1-.064.321c-.043.064-.15.086-.279.086h-2.571Zm3.707-1.736a1,1,0,0,0-.236-.771,1.444,1.444,0,0,0-.857-.193H408.7a3.7,3.7,0,0,1,.064.771V181.2a3.427,3.427,0,0,1-.064.771h.921a3.7,3.7,0,0,1-.064-.771v-1.093h2.614a1.445,1.445,0,0,0,.857-.193,1,1,0,0,0,.236-.771v-1.178Z" transform="translate(-408.186 -166.608)"/><path class="a" d="M434.157,177.307h2.528c.15,0,.236.021.279.086a.6.6,0,0,1,.064.321v1.093a.554.554,0,0,1-.064.321c-.043.064-.15.086-.279.086h-2.528v-1.907Zm1.907,2.314,1.05,2.271h.9a5.81,5.81,0,0,1-.471-.836c-.171-.321-.364-.814-.643-1.436a1.034,1.034,0,0,0,.707-.193,1.007,1.007,0,0,0,.214-.771v-.793a1,1,0,0,0-.236-.771,1.444,1.444,0,0,0-.857-.193H433.3a3.7,3.7,0,0,1,.064.771V181.1a3.427,3.427,0,0,1-.064.771h.921a3.691,3.691,0,0,1-.064-.771v-1.5h1.907Z" transform="translate(-427.515 -166.529)"/><path class="a" d="M460.228,180.043h-2.271l1.136-2.378,1.136,2.378Zm1.821,1.95a1.526,1.526,0,0,1-.236-.364,4.224,4.224,0,0,1-.257-.536L459.564,177h-1.007a.966.966,0,0,1,.15.15c.021.043.064.086.107.15l-1.971,4.135a2.562,2.562,0,0,1-.343.536h.643a1.073,1.073,0,0,1,.043-.257,3.408,3.408,0,0,1,.171-.429l.407-.836H460.4l.343.728q.129.289.193.45a1,1,0,0,1,.064.364Z" transform="translate(-445.744 -166.608)"/><path class="b" d="M484.793,177.307v3.814a3.427,3.427,0,0,1-.064.771h.921a3.692,3.692,0,0,1-.064-.771v-3.814h.75a3.8,3.8,0,0,1,.514.021,2.312,2.312,0,0,1,.407.064l-.086-.493h-3.985l-.086.493c.129-.021.257-.043.429-.064.15,0,.321-.021.493-.021Z" transform="translate(-466.644 -166.529)"/><path class="b" d="M506.857,177.771a3.427,3.427,0,0,1,.064-.771H506a3.7,3.7,0,0,1,.064.771V181.2a3.427,3.427,0,0,1-.064.771h.921a3.7,3.7,0,0,1-.064-.771v-3.428Z" transform="translate(-484.638 -166.608)"/><path class="b" d="M516.293,176.9a1.444,1.444,0,0,0-.857.193c-.171.129-.236.386-.236.771v3.064c0,.386.064.643.236.771a1.4,1.4,0,0,0,.857.193h2.721l.043-.493a4.542,4.542,0,0,1-1.071.086h-1.671c-.15,0-.236-.021-.279-.086a.924.924,0,0,1-.064-.321v-3.364a.509.509,0,0,1,.064-.321c.043-.064.129-.086.257-.086h1.457a7.144,7.144,0,0,1,.75.021,1.2,1.2,0,0,1,.45.086l-.043-.493h-2.614Z" transform="translate(-491.866 -166.53)"/><path class="b" d="M540.371,179.635V181.2a3.419,3.419,0,0,1-.064.771h.921a3.7,3.7,0,0,1-.064-.771v-3.428a3.427,3.427,0,0,1,.064-.771h-.921a3.688,3.688,0,0,1,.064.771v1.457h-2.914v-1.457a3.43,3.43,0,0,1,.064-.771H536.6a3.693,3.693,0,0,1,.064.771V181.2a3.423,3.423,0,0,1-.064.771h.921a3.7,3.7,0,0,1-.064-.771v-1.564Z" transform="translate(-508.681 -166.608)"/><path class="b" d="M562.7,176.9a3.7,3.7,0,0,1,.064.771V181.1a3.427,3.427,0,0,1-.064.771h3.792l.043-.45c-.107.021-.236.021-.364.043-.128,0-.343.021-.6.021h-2.014V179.6H565.4a6.451,6.451,0,0,1,.686.021,2.918,2.918,0,0,0,.343.021v-.514c-.171.021-.321.021-.428.043-.107,0-.321.021-.578.021h-1.843v-1.886h2.014a5.839,5.839,0,0,1,.664.021,2.213,2.213,0,0,0,.3.021l-.043-.45Z" transform="translate(-529.189 -166.53)"/><path class="c" d="M410.414,131.971h-2.271l1.136-2.464,1.136,2.464Zm2.55,2.293a1.783,1.783,0,0,1-.279-.386c-.086-.15-.193-.364-.343-.686l-2.186-4.692h-1.521c.021.021.064.086.129.171a1.365,1.365,0,0,0,.129.193l-2.078,4.521a3.461,3.461,0,0,1-.257.493l-.257.386h.921a2.379,2.379,0,0,1,.043-.364,2.052,2.052,0,0,1,.15-.429l.407-.921h2.828l.343.75c.064.171.129.321.171.45a1.272,1.272,0,0,1,.086.364v.129h1.714Z" transform="translate(-406.3 -128.5)"/><path class="d" d="M445.564,134.264a1.315,1.315,0,0,1-.064-.343v-2.25a5.489,5.489,0,0,1,.064-.836h-3.685v.707a2.648,2.648,0,0,1,.878-.107h1.478V133.3a.442.442,0,0,1-.064.279c-.043.064-.129.086-.257.086h-2.143c-.129,0-.236-.021-.279-.086a.445.445,0,0,1-.086-.321v-3.771a.445.445,0,0,1,.086-.321c.043-.064.15-.086.279-.086h2.55a4.488,4.488,0,0,1,.557.021,2.318,2.318,0,0,1,.45.107l-.086-.707h-3.985a1.415,1.415,0,0,0-.9.236,1.171,1.171,0,0,0-.257.857v3.578a1.114,1.114,0,0,0,.257.836,1.254,1.254,0,0,0,.9.257h2.357a1.049,1.049,0,0,0,.536-.086.58.58,0,0,0,.193-.343l.086.45h1.136Z" transform="translate(-432.858 -128.5)"/><path class="d" d="M474.928,133.557a3.358,3.358,0,0,1-.986.107h-2.25v-1.993h1.993a4.061,4.061,0,0,1,1.028.107v-.814a3.941,3.941,0,0,1-1.028.107h-1.993V129.1h2.25a3.36,3.36,0,0,1,.986.107l-.086-.707H470.3a1.038,1.038,0,0,1,.064.386c0,.129.021.279.021.45v4.092a2.732,2.732,0,0,1-.021.45,2.409,2.409,0,0,1-.064.386h4.542l.086-.707Z" transform="translate(-456.587 -128.5)"/><path class="d" d="M501.507,129.507a4.129,4.129,0,0,1,.021-.514,1.984,1.984,0,0,1,.086-.493H500.8a3.653,3.653,0,0,1,.107.879l-.021,4.007-3.214-4.864H496a4.2,4.2,0,0,1,.107,1.071v3.514a6.494,6.494,0,0,1-.021.707,2.664,2.664,0,0,1-.086.471h.814a3.821,3.821,0,0,1-.086-.879l.021-4.007,3.214,4.885h1.543v-4.778Z" transform="translate(-476.78 -128.5)"/><path class="d" d="M531.335,128.5h-4.864l-.107.707a3.644,3.644,0,0,1,1.007-.107h2.1L526,134.264h5.035l.107-.707a3.426,3.426,0,0,1-1.007.107h-2.271l3.471-5.164Z" transform="translate(-500.352 -128.5)"/><path class="d" d="M556.4,134.264a2.491,2.491,0,0,1-.086-.386,2.876,2.876,0,0,1-.021-.45v-4.092a3.026,3.026,0,0,1,.021-.471,1.274,1.274,0,0,1,.086-.364h-1.5a2.5,2.5,0,0,1,.086.386c0,.129.021.279.021.45v4.092a3.026,3.026,0,0,1-.021.471,1.273,1.273,0,0,1-.086.364Z" transform="translate(-523.06 -128.5)"/><path class="c" d="M569.114,131.971h-2.271l1.136-2.464,1.136,2.464Zm2.528,2.293a1.781,1.781,0,0,1-.279-.386c-.086-.15-.193-.364-.343-.686l-2.164-4.692h-1.521c.021.021.064.086.129.171a1.371,1.371,0,0,0,.129.193l-2.078,4.521a3.461,3.461,0,0,1-.257.493l-.257.386h.921a2.385,2.385,0,0,1,.043-.364,2.063,2.063,0,0,1,.15-.429l.407-.921h2.828l.343.75c.064.171.128.321.171.45a1.27,1.27,0,0,1,.086.364v.129h1.693Z" transform="translate(-530.996 -128.5)"/><path class="c" d="M616.3,131.071c0,.193-.021.343-.086.386a.465.465,0,0,1-.343.107h-2.4V129.1h2.4a.466.466,0,0,1,.343.107c.064.064.086.193.086.407v1.457Zm-.043,1.093a1.647,1.647,0,0,0,1.028-.257,1.04,1.04,0,0,0,.3-.878v-1.371a1.089,1.089,0,0,0-.3-.9,1.647,1.647,0,0,0-1.028-.257H612.1a1.037,1.037,0,0,1,.064.386c0,.129.021.279.021.45v4.092a2.747,2.747,0,0,1-.021.45,2.415,2.415,0,0,1-.064.386h1.478a1.039,1.039,0,0,1-.064-.386c0-.129-.021-.279-.021-.45v-1.264Z" transform="translate(-568.004 -128.5)"/><path class="d" d="M646.328,133.557a3.357,3.357,0,0,1-.986.107h-2.25v-1.993h1.993a4.062,4.062,0,0,1,1.028.107v-.814a3.94,3.94,0,0,1-1.028.107h-1.993V129.1h2.25a3.358,3.358,0,0,1,.986.107l-.086-.707H641.7a1.041,1.041,0,0,1,.064.386c0,.129.021.279.021.45v4.092a2.74,2.74,0,0,1-.021.45,2.423,2.423,0,0,1-.064.386h4.542l.086-.707Z" transform="translate(-591.262 -128.5)"/><path class="c" d="M668.936,131.971h-2.271l1.135-2.464,1.136,2.464Zm2.528,2.293a1.779,1.779,0,0,1-.279-.386c-.086-.15-.193-.364-.343-.686l-2.185-4.692h-1.521c.021.021.064.086.128.171a1.373,1.373,0,0,0,.128.193l-2.078,4.521a3.442,3.442,0,0,1-.257.493l-.257.386h.921a2.377,2.377,0,0,1,.043-.364,2.059,2.059,0,0,1,.15-.429l.407-.921h2.828l.343.75c.064.171.129.321.171.45a1.272,1.272,0,0,1,.086.364v.129h1.714Z" transform="translate(-609.412 -128.5)"/></g><path class="d" d="M4,43.275A39.275,39.275,0,1,1,43.275,82.55,39.284,39.284,0,0,1,4,43.275Z" transform="translate(-3.143 -3.143)"/><path class="d" d="M40.132,80.264A40.132,40.132,0,1,1,80.264,40.132,40.171,40.171,0,0,1,40.132,80.264Zm0-78.529a38.4,38.4,0,1,0,38.4,38.4A38.443,38.443,0,0,0,40.132,1.736Z"/><g transform="translate(4.607 4.607)"><path class="b" d="M57.025,92.551A35.525,35.525,0,1,1,92.551,57.025,35.572,35.572,0,0,1,57.025,92.551Zm-1.35-21.062h1.736V90.815a33.74,33.74,0,1,0-1.714-.021V71.488Z" transform="translate(-21.5 -21.5)"/></g><g class="e"><rect class="b" width="90.399" height="0.321" transform="matrix(0.739, -0.674, 0.674, 0.739, 3.952, 68.137)"/></g><g class="e"><path class="b" d="M81.707,143.24H.5v-.386H81.707Zm.021-26.355H.543V116.5H81.75v.386Z" transform="translate(-0.393 -91.538)"/></g><g transform="translate(18.963 25.541)"><path class="a" d="M106.648,134.542l-5.121-10.906-4.992,10.906ZM117.9,144.783h-7.307v-.6a4.742,4.742,0,0,0-.129-.729c-.021-.107-.129-.407-.279-.879l-.793-1.993-1.564-3.364H95.314l-1.843,4.071a11.235,11.235,0,0,0-.729,1.95,8.1,8.1,0,0,0-.15,1.521H88.5l1.157-1.671a5.03,5.03,0,0,0,.471-.921c.214-.429.429-.836.643-1.243l9.192-20.1-.557-.878-.6-.75h6.728l9.706,20.848,1.478,3a9.148,9.148,0,0,0,1.178,1.736Z" transform="translate(-88.5 -119.2)"/></g><g transform="translate(5.185 40.989)"><rect class="b" width="69.037" height="2.614"/></g><g transform="translate(20.784 20.784)"><path class="b" d="M116.348,135.7A19.348,19.348,0,1,1,135.7,116.348,19.368,19.368,0,0,1,116.348,135.7Zm0-38.375a19.027,19.027,0,1,0,19.027,19.027A19.039,19.039,0,0,0,116.348,97.321Z" transform="translate(-97 -97)"/></g><g transform="translate(14.163 14.163)"><path class="f" d="M92.069,118.038a25.969,25.969,0,1,1,25.969-25.969A26.007,26.007,0,0,1,92.069,118.038Zm0-51.6A25.626,25.626,0,1,0,117.7,92.069,25.668,25.668,0,0,0,92.069,66.443Z" transform="translate(-66.1 -66.1)"/></g><g transform="translate(35.118 25.562)"><path class="g" d="M182.541,130.678v-6.471a3.127,3.127,0,0,0-.364-1.8,1.841,1.841,0,0,0-1.478-.45h-10.67v10.906H180.7a1.841,1.841,0,0,0,1.478-.45,2.731,2.731,0,0,0,.364-1.736Zm-.193,4.864h-12.3v5.592l.086,2.036a5.072,5.072,0,0,0,.043.643,7.88,7.88,0,0,0,.279,1.028H163.9c.043-.193.129-.471.193-.836a3.968,3.968,0,0,0,.129-.836l.086-2.036V123.007l-.086-2.036a5.066,5.066,0,0,0-.043-.643,7.87,7.87,0,0,0-.279-1.028h18.448c2.1,0,3.6.364,4.478,1.114q1.35,1.093,1.35,3.985v6.064c0,1.886-.45,3.214-1.35,3.964a7.081,7.081,0,0,1-4.478,1.114Z" transform="translate(-163.9 -119.3)"/></g><g transform="translate(49.367 66.642)"><path class="a" d="M231.536,313.288l1.478-.6c.086-.021.129-.064.129-.107.021-.043,0-.107-.043-.193l-.343-.857c-.043-.086-.064-.15-.107-.171s-.086-.021-.171.021l-1.478.6.536,1.307Zm1.714-1.864.279.686a.591.591,0,0,1,.043.493,1.006,1.006,0,0,1-.45.321l-1.5.6.257.621a2.588,2.588,0,0,0,.214.429l-.536.214a1.932,1.932,0,0,0-.15-.471l-.793-1.971a1.975,1.975,0,0,0-.214-.429l1.993-.793a.886.886,0,0,1,.536-.086.6.6,0,0,1,.321.386Z" transform="translate(-230.4 -311.022)"/></g><g transform="translate(52.367 65.132)"><path class="a" d="M244.979,305.138l.579,1.028,1.371-.771a.364.364,0,0,0,.129-.129.493.493,0,0,0-.064-.193l-.321-.6a.309.309,0,0,0-.129-.15c-.043-.021-.086,0-.171.043l-1.393.771Zm1.714.664-1.028.578.45.814a2.607,2.607,0,0,0,.279.407l-.493.279c-.043-.129-.107-.257-.193-.45l-1.029-1.864a4.321,4.321,0,0,0-.279-.407l1.843-1.028a.827.827,0,0,1,.514-.15c.129.021.257.129.364.343l.236.429a.618.618,0,0,1,.107.471.759.759,0,0,1-.321.321q.546.418.771.578c.107.064.193.129.257.171a1.159,1.159,0,0,0,.236.129l-.493.279-1.221-.9Z" transform="translate(-244.4 -303.975)"/></g><g transform="translate(56.052 63.744)"><path class="a" d="M263.507,298.828l-1.414-.793.279,1.607,1.136-.814Zm1.628.343-.536.364a.3.3,0,0,0-.064-.086l-.086-.086-.257-.15-.429-.236-1.328.943.086.578a1.054,1.054,0,0,0,.064.279l.064.129-.321.236a1.335,1.335,0,0,0-.021-.407l-.471-2.807-.107-.043-.129-.021.514-.364,2.464,1.371.321.171a.511.511,0,0,0,.236.129Z" transform="translate(-261.6 -297.5)"/></g><g transform="translate(57.873 61.152)"><path class="b" d="M271,286.578l-.343.321-.214.214-.171.193-.171-.257,1.843-1.65.236.193-.214.15-.257.214-.343.321,1.586,1.757a1.559,1.559,0,0,0,.364.321l-.429.386a1.9,1.9,0,0,0-.3-.386L271,286.578Z" transform="translate(-270.1 -285.4)"/></g><g transform="translate(59.995 60.445)"><path class="b" d="M280.729,282.464l1.521,1.478a1.9,1.9,0,0,0,.386.3l-.407.407a2.155,2.155,0,0,0-.321-.364l-1.521-1.478a1.9,1.9,0,0,0-.386-.3l.407-.407a2.152,2.152,0,0,0,.321.364Z" transform="translate(-280 -282.1)"/></g><g transform="translate(60.98 58.345)"><path class="b" d="M284.857,273.521l1.093-1.221.257.193a.466.466,0,0,0-.107.064c-.043.021-.064.064-.107.107l-.321.343-.6.686c-.064.064-.086.129-.064.171,0,.043.043.086.129.15l1.543,1.393a.312.312,0,0,0,.171.107c.043,0,.086-.021.15-.086l.6-.686.086-.107a3.2,3.2,0,0,0,.407-.536l.214.236-1.136,1.264a.883.883,0,0,1-.45.321.545.545,0,0,1-.45-.214l-1.414-1.264c-.171-.171-.257-.3-.257-.429a.838.838,0,0,1,.257-.493Z" transform="translate(-284.6 -272.3)"/></g><g transform="translate(62.652 55.645)"><path class="b" d="M295.057,261.05l-1.028,1.478.793.557a1.453,1.453,0,0,0,.429.236l-.321.471a3.019,3.019,0,0,0-.364-.3l-1.736-1.221a2.214,2.214,0,0,0-.429-.236l.321-.471a3.138,3.138,0,0,0,.364.321l.75.514,1.028-1.478-.75-.514a1.455,1.455,0,0,0-.428-.236l.321-.471a3.143,3.143,0,0,0,.364.321l1.736,1.221a1.454,1.454,0,0,0,.429.236l-.321.471a3.143,3.143,0,0,0-.364-.321l-.793-.578Z" transform="translate(-292.4 -259.7)"/></g><g transform="translate(64.516 53.095)"><path class="b" d="M301.1,249.857l1.136-2.057.257.107-.107.15a3.387,3.387,0,0,0-.214.343l-.6,1.093,1.028.557.557-.986.171-.321.107-.236.279.15-.107.171-.214.364-.557.986,1.028.557.6-1.093.171-.321c.021-.043.043-.064.043-.086a.362.362,0,0,1,.043-.107l.236.15-1.136,2.057a2.611,2.611,0,0,0-.407-.279l-1.864-1.028c-.193-.064-.343-.129-.45-.171Z" transform="translate(-301.1 -247.8)"/></g><g transform="translate(68.565 36.661)"><path class="a" d="M321.843,172.3l-1.414.814,1.521.6-.107-1.414Zm1.136-1.2.043.643a.16.16,0,0,0-.107.021.362.362,0,0,0-.107.043l-.279.15-.429.236.107,1.628.536.214a2.62,2.62,0,0,1,.279.107c.043,0,.107.021.15,0l.021.407a1.087,1.087,0,0,0-.343-.193l-2.635-1.028-.086.064-.086.107-.043-.621,2.443-1.414.321-.193c.086-.064.15-.129.214-.171Z" transform="translate(-320 -171.1)"/></g><g transform="translate(67.987 33.553)"><path class="b" d="M320.428,158.525l-.236-1.543c-.021-.086-.043-.129-.086-.15a.29.29,0,0,0-.193,0l-2.035.321-.257.043-.257.086-.064-.343h.279l.3-.021.064-.021,1.821-.279a.615.615,0,0,1,.471.043.648.648,0,0,1,.193.386l.236,1.521a.756.756,0,0,1-.043.514c-.064.107-.214.171-.45.214l-1.993.321a1.932,1.932,0,0,0-.471.107l-.086-.557a2.277,2.277,0,0,0,.493-.043l2.078-.321a.469.469,0,0,0,.193-.064.2.2,0,0,0,.043-.214Z" transform="translate(-317.3 -156.596)"/></g><g transform="translate(67.215 31.026)"><path class="b" d="M314.321,146.3l.129.45.086.3.107.236-.3.021-.643-2.378.279-.129.021.257.064.321.129.45,2.271-.6a1.519,1.519,0,0,0,.45-.171l.15.557a1.468,1.468,0,0,0-.471.086l-2.271.6Z" transform="translate(-313.7 -144.8)"/></g><g transform="translate(66.192 27.216)"><path class="a" d="M311.363,127.508l-1.928.771c-.086.043-.15.064-.171.107s-.021.086.021.171l.536,1.307c.043.086.064.129.107.129a.391.391,0,0,0,.193-.043l1.928-.771c.086-.043.15-.064.171-.107s.021-.086-.021-.171l-.536-1.307c-.021-.086-.064-.129-.107-.129a.5.5,0,0,0-.193.043Zm-1.778,2.507-.579-1.414a.639.639,0,0,1-.043-.514.6.6,0,0,1,.343-.3l1.778-.707a.556.556,0,0,1,.45-.021.653.653,0,0,1,.321.407l.578,1.414a.639.639,0,0,1,.043.514.66.66,0,0,1-.364.3l-1.778.707a.694.694,0,0,1-.45.043,1,1,0,0,1-.3-.429Z" transform="translate(-308.926 -127.019)"/></g><g transform="translate(64.001 22.927)"><path class="b" d="M303.092,110l.171.3a.309.309,0,0,0-.15.043l-.171.086-.471.257-1.328.729c-.3.171-.493.3-.621.386l-.321-.6,1.8-2.4-2.978.279-.321-.579c.043-.021.086-.021.107-.043a1.474,1.474,0,0,0,.171-.064l.257-.129.064-.043,1.714-.943a2.606,2.606,0,0,0,.407-.279l.279.493a1.732,1.732,0,0,0-.45.193l-1.993,1.093,3-.279.236.407-1.821,2.4,2.036-1.114.193-.129.193-.064Z" transform="translate(-298.7 -107)"/></g><g transform="translate(62.218 20.073)"><path class="a" d="M292.524,94.2l-1.671,1.264c-.086.064-.129.107-.129.15-.021.043,0,.086.064.171l.836,1.114a.222.222,0,0,0,.15.107.256.256,0,0,0,.171-.086l1.671-1.264c.086-.064.129-.107.129-.15.021-.043,0-.086-.064-.171l-.836-1.114a.222.222,0,0,0-.15-.107.384.384,0,0,0-.171.086Zm-1.05,2.893-.921-1.221a.631.631,0,0,1-.171-.493.681.681,0,0,1,.257-.386l1.521-1.157a.617.617,0,0,1,.429-.15.664.664,0,0,1,.429.3l.921,1.221a.631.631,0,0,1,.171.493.681.681,0,0,1-.257.386l-1.521,1.157a.53.53,0,0,1-.429.15.619.619,0,0,1-.429-.3Z" transform="translate(-290.376 -93.681)"/></g><g transform="translate(59.952 17.417)"><path class="a" d="M281.321,84.673l.814-.771-1.071-1.136c-.064-.064-.107-.086-.15-.086a.313.313,0,0,0-.171.107l-.45.429a.7.7,0,0,0-.129.171c0,.043.021.086.086.15l1.071,1.136Zm.986-.9.921-.857-1.071-1.136c-.064-.064-.107-.086-.15-.086a.312.312,0,0,0-.171.107l-.536.514a.7.7,0,0,0-.129.171c0,.043.021.086.086.15l1.05,1.136Zm1.071-.343-1.564,1.457-.193.193c-.021.021-.043.064-.064.086s-.043.064-.064.086l-1.436-1.543a.8.8,0,0,1-.257-.471.584.584,0,0,1,.236-.429l.364-.343a.442.442,0,0,1,.3-.15c.086,0,.171.064.279.171-.043-.064-.086-.107-.107-.15a.4.4,0,0,1-.043-.15c0-.086.064-.171.171-.3l.407-.386c.171-.15.321-.236.45-.214a.817.817,0,0,1,.45.3l1.436,1.543a1.2,1.2,0,0,0-.171.107l-.193.193Z" transform="translate(-279.8 -81.285)"/></g><g transform="translate(58.859 16.284)"><path class="b" d="M275.064,77.971l1.414-1.586a3.222,3.222,0,0,0,.3-.386l.429.386a2.152,2.152,0,0,0-.364.321l-1.414,1.586a3.219,3.219,0,0,0-.3.386l-.429-.386a1.56,1.56,0,0,0,.364-.321Z" transform="translate(-274.7 -76)"/></g><g transform="translate(57.981 14.206)"><path class="b" d="M270.943,66.3l1.971,1.478a3.142,3.142,0,0,0-.321.364l-1.286,1.693a1.986,1.986,0,0,0-.257.407l-.45-.343a3.142,3.142,0,0,0,.321-.364l1.414-1.886-1.093-.814-.3-.214a.3.3,0,0,1-.086-.064c-.021-.021-.064-.021-.107-.064l.193-.193Z" transform="translate(-270.6 -66.3)"/></g><g transform="translate(55.666 13.585)"><path class="b" d="M260.121,65.564l1.221-1.736a1.454,1.454,0,0,0,.236-.429l.471.321a3.142,3.142,0,0,0-.321.364l-1.221,1.736a1.456,1.456,0,0,0-.236.429l-.471-.321a1.106,1.106,0,0,0,.321-.364Z" transform="translate(-259.8 -63.4)"/></g><g transform="translate(52.988 11.972)"><path class="b" d="M248.928,59.352l-1.628-.9.107-.279.15.107a4.155,4.155,0,0,0,.364.214l1.114.621c.086.043.129.064.171.043a.309.309,0,0,0,.129-.15l.257-.45a.493.493,0,0,0,.064-.193q0-.064-.129-.129l-1.114-.621a.865.865,0,0,1-.407-.364.589.589,0,0,1,.107-.493l.3-.536a.611.611,0,0,1,.364-.343.8.8,0,0,1,.514.15l1.671.921-.107.257-.15-.107a3.378,3.378,0,0,0-.343-.214l-1.157-.643a.172.172,0,0,0-.171-.021.309.309,0,0,0-.129.15l-.3.536a.493.493,0,0,0-.064.193q0,.064.129.129l1.114.621c.214.129.364.236.407.364a.682.682,0,0,1-.107.493l-.257.471c-.107.214-.236.321-.364.343a1.151,1.151,0,0,1-.536-.171Z" transform="translate(-247.3 -55.875)"/></g><g transform="translate(50.353 10.863)"><path class="b" d="M236.457,53.528l.429.193.279.107.257.064-.171.257L235,53.143l.086-.3.214.129.3.15.429.193.964-2.164a2.164,2.164,0,0,0,.15-.45l.536.236a2.371,2.371,0,0,0-.236.429l-.986,2.164Z" transform="translate(-235 -50.7)"/></g><g transform="translate(49.431 10.092)"><path class="b" d="M230.914,49.564l.771-1.993a1.748,1.748,0,0,0,.129-.471l.536.214a1.974,1.974,0,0,0-.214.429l-.771,1.993a1.746,1.746,0,0,0-.129.471l-.536-.214a1.133,1.133,0,0,0,.214-.429Z" transform="translate(-230.7 -47.1)"/></g><g transform="translate(46.689 9.192)"><path class="b" d="M219.486,46.307l-1.586-.471.064-.3a.467.467,0,0,1,.107.064l.129.064.45.15.878.257c.086.021.15.021.171,0a.41.41,0,0,0,.086-.171l.6-1.993c.021-.086.043-.15.021-.193s-.064-.064-.15-.107l-.878-.257-.129-.043a2.381,2.381,0,0,0-.643-.129l.129-.279,1.607.493a.806.806,0,0,1,.471.279.638.638,0,0,1,0,.493l-.557,1.821a.568.568,0,0,1-.279.407,1.411,1.411,0,0,1-.493-.086Z" transform="translate(-217.9 -42.9)"/></g><g transform="translate(43.389 8.485)"><path class="b" d="M203.293,41.121l1.778.279.15-.964a2.276,2.276,0,0,0,.043-.493l.557.086a1.93,1.93,0,0,0-.107.471l-.343,2.1c-.021.193-.043.364-.043.493l-.557-.086a2.762,2.762,0,0,0,.129-.471l.15-.9-1.778-.279-.15.9a2.276,2.276,0,0,0-.043.493l-.579-.086a2.755,2.755,0,0,0,.129-.471l.343-2.1a2.279,2.279,0,0,0,.043-.493l.579.086a2.758,2.758,0,0,0-.129.471l-.171.964Z" transform="translate(-202.5 -39.6)"/></g><g transform="translate(40.518 8.249)"><path class="b" d="M191.457,41.714l-2.357-.171v-.279l.193.043c.107.021.236.021.407.043l1.243.086.086-1.157-1.136-.086-.364-.021h-.257l.021-.321.214.043.429.043,1.136.086.086-1.157-1.243-.086-.364-.021h-.107a.377.377,0,0,0-.129.021l.043-.279,2.357.171a1.471,1.471,0,0,0-.064.471l-.15,2.121a1.76,1.76,0,0,0-.043.45Z" transform="translate(-189.1 -38.5)"/></g><g transform="translate(7.349 45.189)"><path class="g" d="M36.4,213.407l1.65-1.264-2.014-.493.364,1.757Zm-1.2,1.736-.171-.793c.064-.021.107-.021.129-.043a.718.718,0,0,1,.129-.064l.321-.214.493-.386-.429-2.036-.707-.171a1.838,1.838,0,0,0-.364-.064.592.592,0,0,0-.193.021L34.3,210.9a1.554,1.554,0,0,0,.471.193l3.514.836.107-.107.086-.15.171.771-2.828,2.207-.364.3a.461.461,0,0,0-.257.193Z" transform="translate(-34.3 -210.9)"/></g><g transform="translate(8.769 49.045)"><path class="f" d="M44.068,229.518l-2.507.964a.458.458,0,0,0-.214.129.317.317,0,0,0,.021.236l.621,1.628a.291.291,0,0,0,.129.171.4.4,0,0,0,.257-.043l1.307-.493-.364-.943-.171-.45a1.167,1.167,0,0,0-.214-.364l.364-.15.921,2.421-.386.107-.214.064-1.05.407a2.763,2.763,0,0,0-.557.257l-.193-.514.214-.15a.264.264,0,0,1-.236-.043,1,1,0,0,1-.171-.321l-.579-1.543a1.148,1.148,0,0,1-.107-.643.66.66,0,0,1,.45-.343l2.4-.921a.7.7,0,0,1,.579-.043.991.991,0,0,1,.364.557l.921,2.4-.343.171a1.066,1.066,0,0,0-.064-.343l-.15-.429-.621-1.607c-.043-.107-.086-.171-.15-.171-.043-.064-.129-.043-.257,0Z" transform="translate(-40.923 -228.895)"/></g><g transform="translate(10.349 52.774)"><path class="f" d="M51.771,246.3l1.457,2.614-.3.193-.086-.214a3.176,3.176,0,0,0-.236-.471l-.771-1.393-1.307.729.707,1.264.236.407.193.279-.364.193-.107-.236-.236-.471-.707-1.264-1.307.729.771,1.393.236.407a.229.229,0,0,0,.064.107,1.272,1.272,0,0,1,.086.129l-.343.15L48.3,248.228a2.445,2.445,0,0,0,.557-.257l2.357-1.307a4.2,4.2,0,0,0,.557-.364Z" transform="translate(-48.3 -246.3)"/></g><g transform="translate(12.342 55.795)"><path class="f" d="M59.721,265.628l-.471-.643,1.414-4.007-2.293,1.65-.257.193-.257.236-.257-.364a1.471,1.471,0,0,0,.171-.064,1.455,1.455,0,0,0,.193-.129l.557-.386,1.543-1.136a7.375,7.375,0,0,0,.707-.579l.471.643-1.414,4.071,2.335-1.671.257-.193.257-.236.257.364a.349.349,0,0,0-.129.064c-.086.043-.15.086-.193.107l-.321.214-.064.064-2.507,1.8Z" transform="translate(-57.6 -260.4)"/></g><g transform="translate(15.213 59.266)"><path class="f" d="M76.271,278.957l-4.414.643,1.178,1.221.343.343c.043.043.086.086.107.086a1.279,1.279,0,0,0,.129.086l-.3.214L71,279.15l4.392-.664L74.3,277.35l-.343-.343-.236-.193.3-.214,2.25,2.357Z" transform="translate(-71 -276.6)"/></g><g transform="translate(18.363 61.859)"><path class="f" d="M88.335,289.6,86.6,291.678a1.934,1.934,0,0,0-.343.514l-.557-.471a2.006,2.006,0,0,0,.429-.429l1.736-2.078a1.935,1.935,0,0,0,.343-.514l.557.471a1.586,1.586,0,0,0-.429.429Z" transform="translate(-85.7 -288.7)"/></g><g transform="translate(19.37 63.444)"><path class="g" d="M93.678,298.864,94,296.807l-1.8,1.028,1.478,1.028Zm.3,2.078-.664-.471a.185.185,0,0,0,.064-.129c.021-.021.021-.086.043-.15l.086-.386.107-.621-1.693-1.2-.643.364q-.225.129-.321.193a.932.932,0,0,0-.129.15l-.429-.3a2.186,2.186,0,0,0,.471-.193l3.15-1.778v-.15L94,296.1l.643.45-.557,3.535-.064.471a1.476,1.476,0,0,0-.043.386Z" transform="translate(-90.4 -296.1)"/></g><g transform="translate(25.369 65.866)"><path class="g" d="M119.686,309.65l1.886.75a.265.265,0,0,0,.214.021.455.455,0,0,0,.15-.214l.45-1.093c.043-.129.064-.193.043-.257,0-.043-.064-.107-.171-.15l-1.886-.75-.686,1.693Zm3.214-.193-.343.857a.753.753,0,0,1-.407.493,1.088,1.088,0,0,1-.686-.107l-1.907-.771-.321.793a2.181,2.181,0,0,0-.171.6l-.664-.279a4.438,4.438,0,0,0,.279-.557l1.007-2.507q.129-.354.193-.579l2.528,1.029a1.008,1.008,0,0,1,.557.407.837.837,0,0,1-.064.621Z" transform="translate(-118.4 -307.4)"/></g><g transform="translate(29.547 67.365)"><path class="f" d="M138.928,314.4l2.893.771-.064.364-.236-.086a4.7,4.7,0,0,0-.493-.15l-1.543-.407-.386,1.436,1.393.364.45.107.343.064-.107.386-.257-.086-.514-.15-1.393-.364-.386,1.436,1.543.407.471.107a.377.377,0,0,0,.129.021.418.418,0,0,1,.15.021l-.129.343-2.893-.771a4.221,4.221,0,0,0,.214-.579l.707-2.614a2.69,2.69,0,0,0,.107-.621Z" transform="translate(-137.9 -314.4)"/></g><g transform="translate(33.018 68.458)"><path class="g" d="M157.228,322.028l-.643-1.971-1.136,1.736,1.778.236Zm1.221,1.714-.814-.107c0-.064.021-.107,0-.129a.419.419,0,0,0-.021-.15l-.107-.364-.193-.6-2.057-.3-.407.621a1.511,1.511,0,0,0-.193.321.625.625,0,0,0-.043.193l-.514-.064a2,2,0,0,0,.343-.386l1.993-3.021-.064-.129-.107-.129.771.107,1.114,3.407.15.45a1.156,1.156,0,0,0,.15.279Z" transform="translate(-154.1 -319.5)"/></g></svg>