<svg id="Livello_1" data-name="Livello 1" xmlns="http://www.w3.org/2000/svg" viewBox="0 0 70 70"><defs><style>.cls-1{fill:#221f20;}</style></defs><title>Tavola disegno 1 copia</title><path class="cls-1" d="M35,12.5A22.5,22.5,0,1,0,57.5,35,22.5,22.5,0,0,0,35,12.5Zm0,5.62A16.87,16.87,0,0,1,50.84,29.38H19.16A16.86,16.86,0,0,1,35,18.12Zm0,19.69A2.81,2.81,0,1,1,37.81,35h0A2.81,2.81,0,0,1,35,37.81ZM18.12,35c7.69,0,13.91,7.41,14,16.59A16.87,16.87,0,0,1,18.12,35ZM37.83,51.59C38,42.41,44.19,35,51.87,35A16.87,16.87,0,0,1,37.83,51.59Z"/></svg>