<?xml version="1.0" encoding="UTF-8"?> <svg xmlns="http://www.w3.org/2000/svg" width="40.085" height="48.163" viewBox="0 0 40.085 48.163"><path d="M110.373,26.321c3.22,0,10.79-3.875,10.79-13.161,0-1.3-.032-2.546-.138-3.728a11.157,11.157,0,0,0-1.838-5.968C117.666,1.313,115,0,110.373,0s-7.291,1.312-8.813,3.462a11.155,11.155,0,0,0-1.839,5.97c-.107,1.182-.138,2.433-.138,3.728C99.583,22.446,107.153,26.321,110.373,26.321Zm3.522-21.5-.786,1.986a8.917,8.917,0,0,0-5.472,0l-.786-1.986A11.052,11.052,0,0,1,113.9,4.821Zm-12.707,6.326c.124.272.653,1.317,1.47,1.415.94.113,2.5-3.328,7.715-3.336,5.215.008,6.775,3.449,7.715,3.336.818-.1,1.346-1.143,1.47-1.415.025.666.035,1.341.035,2.013a11.734,11.734,0,0,1-3.685,8.911,9.424,9.424,0,0,1-5.534,2.679,9.424,9.424,0,0,1-5.534-2.679,11.734,11.734,0,0,1-3.685-8.911C101.154,12.488,101.163,11.813,101.188,11.147Z" transform="translate(-90.331 0)"></path><path d="M70.34,202.764c-.551-3.425-1.685-7.838-3.96-9.406-1.554-1.071-6.974-3.967-9.288-5.2l-.039-.021a.756.756,0,0,0-.823.072,9.833,9.833,0,0,1-3.947,1.906.756.756,0,0,0-.543.47l-1.433,3.776-1.433-3.776a.756.756,0,0,0-.543-.47,9.832,9.832,0,0,1-3.947-1.906.757.757,0,0,0-.824-.072c-2.287,1.222-7.773,4.177-9.32,5.22-2.619,1.764-3.764,8.149-3.967,9.411a.76.76,0,0,0,.034.373c.056.157.922,2.4,5.253,4.2a2.152,2.152,0,0,1,.956-.688,2.135,2.135,0,0,1-1.164-3.039,6.33,6.33,0,0,1,10.819-.491h8.265a6.341,6.341,0,0,1,5.254-2.81h0a6.341,6.341,0,0,1,5.558,3.284,2.136,2.136,0,0,1-1.156,3.042,2.149,2.149,0,0,1,.97.7c4.32-1.8,5.185-4.042,5.241-4.2A.761.761,0,0,0,70.34,202.764Z" transform="translate(-30.265 -162.947)"></path><path d="M106.853,300.165h0l-3.982.005a7.522,7.522,0,0,1,0-3.489l3.981-.006a.269.269,0,0,0,.235-.4,4.465,4.465,0,0,0-8.06.5h-10.5a4.461,4.461,0,0,0-8.062-.482.269.269,0,0,0,.236.4h0l3.982-.006a7.522,7.522,0,0,1,0,3.489l-3.981.006a.269.269,0,0,0-.235.4,4.467,4.467,0,0,0,3.913,2.315h.007a4.464,4.464,0,0,0,4.14-2.811h10.5a4.471,4.471,0,0,0,4.143,2.811h.006a4.468,4.468,0,0,0,3.913-2.327.269.269,0,0,0-.236-.4Z" transform="translate(-73.733 -254.727)"></path></svg> 