<?xml version="1.0" encoding="UTF-8"?> <svg xmlns="http://www.w3.org/2000/svg" width="39.81" height="48.49" viewBox="0 0 39.81 48.49"><g transform="matrix(-0.966, 0.259, -0.259, -0.966, 43.483, 38.242)"><path d="M0,2.153,2.153,0,8.726,6.573,6.572,8.726Zm0,0" transform="translate(5.497 25.368)"></path><path d="M6.611,14.345a.709.709,0,0,1-.5-1.21L19.244,0,14.813.411a.171.171,0,0,0-.152.115L14.1,2A5.653,5.653,0,0,1,10.9,5.244l-.123.049A4.279,4.279,0,0,0,8.382,7.707,5.618,5.618,0,0,1,5.122,10.99,4.2,4.2,0,0,0,2.7,13.415L2.67,13.5A5.687,5.687,0,0,1,0,16.479a29.875,29.875,0,0,1,3.764,3.768,5.617,5.617,0,0,1,2.977-2.665l.071-.029A4.216,4.216,0,0,0,9.26,15.119a.747.747,0,0,1,.032-.071,5.637,5.637,0,0,1,3.223-3.185A4.2,4.2,0,0,0,14.94,9.438a.673.673,0,0,1,.031-.071,5.662,5.662,0,0,1,3.211-3.184L19.72,5.6a.184.184,0,0,0,.115-.149L20.247,1,7.112,14.137A.709.709,0,0,1,6.611,14.345Zm0,0" transform="translate(19.344)"></path><path d="M11.258,25.019a2.918,2.918,0,0,0,2.884,0A28.851,28.851,0,0,0,25.023,14.142a2.918,2.918,0,0,0,0-2.884A28.844,28.844,0,0,0,14.142.381a2.917,2.917,0,0,0-2.884,0A28.85,28.85,0,0,0,.381,11.259a2.916,2.916,0,0,0,0,2.884A28.841,28.841,0,0,0,11.258,25.019Zm7.318-7.828c.025-.02,2.517-2,2.665-4.438a4.323,4.323,0,0,0-1.467-3.339.709.709,0,0,1,1-1,5.671,5.671,0,0,1,1.88,4.436c-.193,3.083-3.087,5.366-3.208,5.458a.709.709,0,0,1-.872-1.118ZM4.495,12.329l2.153-2.154a1.418,1.418,0,0,1,2.006,0l6.572,6.572a1.417,1.417,0,0,1,0,2.005l-2.154,2.153a1.418,1.418,0,0,1-2,0L4.495,14.334A1.418,1.418,0,0,1,4.495,12.329Zm0,0" transform="translate(0 14.191)"></path></g></svg> 