<?xml version="1.0" encoding="UTF-8"?> <svg xmlns="http://www.w3.org/2000/svg" id="Livello_1" data-name="Livello 1" viewBox="0 0 70 70"><defs><style>.cls-1{fill:#010101;}</style></defs><title>Tavola disegno 1 copia 9</title><rect class="cls-1" x="38.35" y="45.11" width="2.38" height="1.19"></rect><path class="cls-1" d="M33,35.59v5.95H46.08V35.6Zm10.7,4.17a.58.58,0,0,1-.59.59H36a.6.6,0,0,1-.6-.59h0V37.38a.6.6,0,0,1,.6-.6h7.14a.6.6,0,0,1,.59.6h0Z"></path><rect class="cls-1" x="36.56" y="37.97" width="5.95" height="1.19"></rect><path class="cls-1" d="M33,42.73v1.79a4.16,4.16,0,0,0,4.16,4.16h4.76a4.16,4.16,0,0,0,4.16-4.16V42.73Zm8.92,3.57a1.19,1.19,0,0,1-1.19,1.19H38.35a1.19,1.19,0,0,1-1.19-1.19V45.11a1.19,1.19,0,0,1,1.19-1.19h2.38a1.19,1.19,0,0,1,1.19,1.19Z"></path><circle class="cls-1" cx="34.19" cy="23.11" r="1.78"></circle><path class="cls-1" d="M44.3,17.16H34.78a6.54,6.54,0,0,0-6.54,6.54v1.57L15.39,47.81A1.76,1.76,0,0,0,16,50.2l1.07.62a1.71,1.71,0,0,0,.88.24,1.74,1.74,0,0,0,1.53-.9l8.72-15.35V46.3a6.54,6.54,0,0,0,6.54,6.54H44.3a6.55,6.55,0,0,0,6.54-6.54V23.7A6.55,6.55,0,0,0,44.3,17.16ZM28.24,32.4,18.49,49.58a.57.57,0,0,1-.78.21h0l-1.08-.63a.57.57,0,0,1-.21-.77L28.24,27.67V32.4Zm5.95-12.27a3,3,0,1,1-3,3A3,3,0,0,1,34.19,20.13ZM47.27,35v9.52a5.36,5.36,0,0,1-5.35,5.35H37.16a5.36,5.36,0,0,1-5.35-5.35V32.62a5.36,5.36,0,0,1,5.35-5.35h4.76a5.36,5.36,0,0,1,5.35,5.35Z"></path><path class="cls-1" d="M41.92,28.46H37.16A4.16,4.16,0,0,0,33,32.62v1.79H46.08V32.62A4.16,4.16,0,0,0,41.92,28.46Zm0,3.57a1.21,1.21,0,0,1-1.19,1.19H38.35A1.2,1.2,0,0,1,37.16,32V30.84a1.19,1.19,0,0,1,1.19-1.19h2.38a1.19,1.19,0,0,1,1.19,1.19Z"></path><rect class="cls-1" x="38.35" y="30.84" width="2.38" height="1.19"></rect></svg> 