<?xml version="1.0" encoding="UTF-8"?> <svg xmlns="http://www.w3.org/2000/svg" width="40.915" height="40.915" viewBox="0 0 40.915 40.915"><defs><style>.a{fill:#fff;}</style></defs><path class="a" d="M20.457,0A20.457,20.457,0,1,0,40.915,20.457,20.458,20.458,0,0,0,20.457,0Zm0,5.114a15.33,15.33,0,0,1,14.4,10.229H6.053A15.33,15.33,0,0,1,20.457,5.114Zm0,17.9a2.557,2.557,0,1,1,2.557-2.557A2.556,2.556,0,0,1,20.457,23.015ZM5.114,20.457c6.987,0,12.647,6.733,12.765,15.083A15.34,15.34,0,0,1,5.114,20.457ZM23.035,35.541c.119-8.35,5.778-15.083,12.765-15.083A15.34,15.34,0,0,1,23.035,35.541Z"></path></svg> 