<?xml version="1.0" encoding="UTF-8"?> <svg xmlns="http://www.w3.org/2000/svg" id="Livello_1" data-name="Livello 1" viewBox="0 0 70 70"><defs><style>.cls-1{fill:#221f20;}</style></defs><title>Tavola disegno 1 copia 3</title><path class="cls-1" d="M35,37.08c3,0,10-3.61,10-12.25,0-1.22,0-2.38-.13-3.48a10.42,10.42,0,0,0-1.71-5.56c-1.42-2-3.9-3.22-8.21-3.22s-6.79,1.22-8.21,3.22a10.39,10.39,0,0,0-1.71,5.56c-.1,1.1-.13,2.27-.13,3.48C25,33.47,32,37.08,35,37.08Zm3.28-20-.73,1.85a8.23,8.23,0,0,0-5.1,0l-.73-1.85a10.26,10.26,0,0,1,6.57,0ZM26.45,23c.11.25.6,1.23,1.37,1.32s2.32-3.1,7.18-3.11,6.31,3.21,7.19,3.11S43.44,23.2,43.56,23c0,.62,0,1.25,0,1.88a10.89,10.89,0,0,1-3.43,8.29A8.75,8.75,0,0,1,35,35.62a8.72,8.72,0,0,1-5.15-2.5,10.89,10.89,0,0,1-3.43-8.29C26.41,24.2,26.42,23.57,26.45,23Z"></path><path class="cls-1" d="M53.66,49.65c-.51-3.19-1.57-7.3-3.69-8.76-1.45-1-6.49-3.69-8.65-4.84l0,0a.68.68,0,0,0-.76.07,9.25,9.25,0,0,1-3.68,1.77.69.69,0,0,0-.5.44L35,41.83l-1.33-3.52a.73.73,0,0,0-.51-.44,9.25,9.25,0,0,1-3.68-1.77.68.68,0,0,0-.76-.07c-2.13,1.14-7.24,3.89-8.68,4.86-2.44,1.64-3.51,7.59-3.7,8.77a.66.66,0,0,0,0,.34c.06.15.86,2.24,4.9,3.91a2,2,0,0,1,.89-.64,2,2,0,0,1-1.22-2.53c0-.1.08-.2.13-.3A5.9,5.9,0,0,1,31.15,50h7.7a5.86,5.86,0,0,1,4.89-2.62h0a5.92,5.92,0,0,1,5.18,3.06,2,2,0,0,1-.79,2.7,1.51,1.51,0,0,1-.29.13,2,2,0,0,1,.9.65c4-1.67,4.83-3.76,4.88-3.91A.69.69,0,0,0,53.66,49.65Z"></path><path class="cls-1" d="M47.18,54.89H43.47a7.14,7.14,0,0,1,0-3.25h3.71a.25.25,0,0,0,.25-.25.28.28,0,0,0,0-.13,4.17,4.17,0,0,0-7.51.47H30.11a4.16,4.16,0,0,0-7.51-.45.26.26,0,0,0,.1.34.27.27,0,0,0,.12,0h3.71a6.87,6.87,0,0,1,0,3.25h-3.7a.26.26,0,0,0-.26.25.28.28,0,0,0,0,.13,4.16,4.16,0,0,0,3.64,2.15h0a4.15,4.15,0,0,0,3.85-2.62h9.78a4.16,4.16,0,0,0,3.86,2.62h0a4.14,4.14,0,0,0,3.64-2.17.25.25,0,0,0-.1-.34.24.24,0,0,0-.12,0Z"></path></svg> 