<?xml version="1.0" encoding="UTF-8"?> <svg xmlns="http://www.w3.org/2000/svg" width="38.892" height="40.457" viewBox="0 0 38.892 40.457"><path d="M47.586,23.982v-9.6c0-3.763-3.387-15.433-18.257-14.3A19.409,19.409,0,0,0,12.344,12.461c-.011.028-.014.056-.024.083a.941.941,0,0,0-.142.194c-.169.367-4.122,9.1-3.4,18.533a.926.926,0,0,0,.1.351c0,.023,0,.043,0,.067a19.5,19.5,0,0,0,2.663,7.283,3.5,3.5,0,0,0,4.2,1.23L44.987,27.9A4.6,4.6,0,0,0,47.586,23.982ZM28.565,15.4a21.856,21.856,0,0,1-7.706,10.649,15.82,15.82,0,0,1-9.27,3.257,3.8,3.8,0,0,0-1.009.127,41.044,41.044,0,0,1,2.6-14.148,2.238,2.238,0,0,0,1.035.355,12.125,12.125,0,0,0,8.523-2.2,7.674,7.674,0,0,1,4.145-1.89C28.443,11.478,29.082,13.93,28.565,15.4Zm11.493,9.145A2.541,2.541,0,1,1,42.6,22,2.541,2.541,0,0,1,40.058,24.545Z" transform="translate(-8.694 0)"></path></svg> 