<?xml version="1.0" encoding="UTF-8"?> <!-- Generator: Adobe Illustrator 22.0.1, SVG Export Plug-In . SVG Version: 6.00 Build 0) --> <svg xmlns="http://www.w3.org/2000/svg" xmlns:xlink="http://www.w3.org/1999/xlink" id="Livello_1" x="0px" y="0px" viewBox="0 0 70 70" style="enable-background:new 0 0 70 70;" xml:space="preserve"> <style type="text/css"> .st0{fill:#E6823B;} .st1{fill:none;stroke:#FFFFFF;stroke-width:0.25;stroke-miterlimit:10;} .st2{fill:#FFFFFF;} .st3{fill:#010101;} </style> <g> <path class="st3" d="M57.1,32c-0.3,0.4-0.8,0.6-1.3,0.6c-4.3,0-8.7,0-13,0c-1.1,0-1.3-0.2-1.3-1.3c0-3.9,0-7.8,0-11.7 c0-0.7,0.2-1.1,0.6-1.6c0.1-0.1,0.2-0.2,0.4-0.4c0.6-0.6,1.3-1,2.2-0.9c3.3,0.1,6.5,0,9.8,0c0.5,0,0.9,0.1,1.2,0.5 c0.5,0.5,1,1.1,1.5,1.6C57.1,23.2,57.1,27.6,57.1,32z M49.2,24.4c1.3,0,2.6,0,3.8,0c0.6,0,0.8-0.2,0.9-0.8c0-1.2,0-2.3,0-3.5 c0-0.5-0.3-0.8-0.8-0.8c-2.6,0-5.1,0-7.7,0c-0.6,0-0.8,0.2-0.8,0.8c0,1.1,0,2.2,0,3.3c0,0.6,0.2,0.8,0.9,0.9 C46.7,24.4,48,24.4,49.2,24.4z"></path> <path class="st3" d="M49.8,53.3C49,53.1,49,52.4,49,51.7c0-4.5,0-9,0-13.6c0-0.2,0-0.5,0-0.7c-0.9-0.3-1.2-0.1-1.2,0.8 c0,4.5,0,9,0,13.4c0,0.2,0,0.4,0,0.6c-1.4-0.3-1.7-0.7-1.7-2c0-4.1,0-8.2,0-12.4c0-0.3-0.1-0.6-0.2-0.8c-0.5-0.6-0.7-1.2-0.6-2 c0-0.5,0-1.1,0-1.6c2.7,0,5.4,0,8.1,0c0,0.9,0,1.7,0,2.6c0,0.3-0.4,0.6-0.5,0.9c-0.1,0.3-0.3,0.6-0.3,0.9c0,4.3,0,8.5,0,12.8 c0,0.8-0.3,1.3-0.9,1.7c-0.4,0.3-0.9,0.6-1.3,0.9C50.1,53.3,50,53.3,49.8,53.3z"></path> <g> <path class="st3" d="M44.1,39c0-0.6-0.1-1.1-0.5-1.6c-0.2-0.3-0.3-0.7-0.3-1c-0.1-0.6,0-1.2,0-1.8c-1.3,0.1-2.4-0.1-3.2-1.1 c-0.8-1-0.6-2.2-0.7-3.3c-6.7-0.2-13.2,0.1-20,0.5c0.2-0.3,0.2-0.5,0.4-0.6c1.5-1.9,3.1-3.8,4.6-5.7c0.2-0.3,0.6-0.5,1-0.5 c3.8-0.2,7.5-0.3,11.3-0.4c0.4,0,0.9,0,1.3,0c0.4,0,0.9,0,1.3,0c0-0.7,0-1.4,0-2c-0.1,0-0.3,0-0.4,0c-1.2,0-2.4-0.1-3.6-0.1 c-3.6,0-7.2,0.2-10.8,0.4c-0.7,0.1-1.3,0.4-1.7,1c-1.2,1.4-2.3,2.9-3.5,4.3c-0.3,0.3-0.5,0.5-1,0.4c-0.6,0-1.1,0-1.7,0 c-0.1,0-0.3,0-0.4,0c-0.6,0-1.1,0-1.7,0c-0.5,0-0.8,0.1-1.1,0.4c-0.2,0.2-0.3,0.4-0.4,0.7c-0.1,0.4-0.2,0.7-0.3,1.1 c-0.2,0.4,0,0.6,0.3,0.8c0.8,0.4,1.6,0.7,2.5,1.1c-0.3,0.3-0.5,0.7-0.8,1c-0.8,0.9-1.2,2-1.2,3.3c0,4.4,0,8.9,0,13.3 c0,0.7,0.4,1.1,1.1,1.1c2.3,0,4.6,0,6.9,0c0.2,0,0.3,0,0.5-0.1c0.4-0.1,0.6-0.5,0.6-1c0-0.4,0-0.8,0-1.2c0,0,0,0,0,0c0,0,0,0,0,0 c7.2,0,14.2,0,21.3,0c0-0.3,0-0.5,0-0.7C44.1,44.4,44.1,41.7,44.1,39z M23.4,37.7c-0.8,0-1.6,0-2.3,0c0-0.1,0-0.1,0-0.2 c-1,0-2,0-3,0c-1.1,0-1.7-0.7-1.8-1.8c0-0.4,0-0.8,0-1.1c0-0.5,0.3-0.7,0.8-0.7c2.1,0.3,4.1,0.5,6.2,0.8c1,0.1,1.5,0.8,1.5,1.8 C24.7,37.8,24.8,37.7,23.4,37.7z"></path> </g> </g> </svg> 