<?xml version="1.0" encoding="utf-8"?>
<!-- Generator: Adobe Illustrator 22.0.1, SVG Export Plug-In . SVG Version: 6.00 Build 0)  -->
<svg version="1.1" id="Livello_1" xmlns="http://www.w3.org/2000/svg" xmlns:xlink="http://www.w3.org/1999/xlink" x="0px" y="0px"
	 viewBox="0 0 48.3 48.4" style="enable-background:new 0 0 48.3 48.4;" xml:space="preserve">
<style type="text/css">
	.st0{fill:#E07100;}
</style>
<path class="st0" d="M46.8,18.2c0.2-0.2,0.6-0.1,0.8,0.1c0.1,0.1,0.1,0.2,0.1,0.3v18.8c0,2.4-2,4.4-4.4,4.4H5c-2.4,0-4.4-2-4.4-4.4
	V18.6c0-0.3,0.2-0.6,0.5-0.6c0.1,0,0.2,0,0.3,0.1c2.1,1.6,4.8,3.6,14.2,10.4c1.9,1.4,5.2,4.4,8.5,4.4c3.3,0,6.6-3,8.5-4.4
	C42,21.8,44.7,19.8,46.8,18.2z M24.1,30.1c2.1,0,5.2-2.7,6.8-3.8c12.2-8.9,13.1-9.6,16-11.8c0.5-0.4,0.8-1.1,0.8-1.7V11
	c0-2.4-2-4.4-4.4-4.4H5c-2.4,0-4.4,2-4.4,4.4v1.7c0,0.7,0.3,1.3,0.8,1.7c2.8,2.2,3.7,3,16,11.8C18.9,27.4,22,30.1,24.1,30.1
	L24.1,30.1z"/>
</svg>
