<?xml version="1.0" encoding="utf-8"?>
<!-- Generator: Adobe Illustrator 22.0.1, SVG Export Plug-In . SVG Version: 6.00 Build 0)  -->
<svg version="1.1" id="Livello_1" xmlns="http://www.w3.org/2000/svg" xmlns:xlink="http://www.w3.org/1999/xlink" x="0px" y="0px"
	 viewBox="0 0 48.3 48.4" style="enable-background:new 0 0 48.3 48.4;" xml:space="preserve">
<style type="text/css">
	.st0{fill:#E07100;}
</style>
<path class="st0" d="M42.2,16.5V9.8c0-0.7-0.3-1.3-0.8-1.8l-3.7-3.7c-0.5-0.5-1.1-0.8-1.8-0.8H16.4c-1.4,0-2.6,1.2-2.6,2.6v36.1
	c0,1.4,1.2,2.6,2.6,2.6h25.8c1.4,0,2.6-1.2,2.6-2.6V19C44.8,17.6,43.6,16.5,42.2,16.5z M26.7,38.4c0,0.7-0.6,1.3-1.3,1.3l0,0h-2.6
	c-0.7,0-1.3-0.6-1.3-1.3l0,0v-2.6c0-0.7,0.6-1.3,1.3-1.3l0,0h2.6c0.7,0,1.3,0.6,1.3,1.3l0,0L26.7,38.4z M26.7,28.1
	c0,0.7-0.6,1.3-1.3,1.3l0,0h-2.6c-0.7,0-1.3-0.6-1.3-1.3l0,0v-2.6c0-0.7,0.6-1.3,1.3-1.3l0,0h2.6c0.7,0,1.3,0.6,1.3,1.3l0,0
	L26.7,28.1z M37.1,38.4c0,0.7-0.6,1.3-1.3,1.3l0,0h-2.6c-0.7,0-1.3-0.6-1.3-1.3v-2.6c0-0.7,0.6-1.3,1.3-1.3l0,0h2.6
	c0.7,0,1.3,0.6,1.3,1.3l0,0L37.1,38.4z M37.1,28.1c0,0.7-0.6,1.3-1.3,1.3l0,0h-2.6c-0.7,0-1.3-0.6-1.3-1.3v-2.6
	c0-0.7,0.6-1.3,1.3-1.3l0,0h2.6c0.7,0,1.3,0.6,1.3,1.3l0,0L37.1,28.1z M37.1,19H19V8.7h12.9v3.9c0,0.7,0.6,1.3,1.3,1.3l0,0h3.9V19z
	 M8.7,13.9H6.1c-1.4,0-2.6,1.2-2.6,2.6v25.8c0,1.4,1.2,2.6,2.6,2.6h2.6c1.4,0,2.6-1.2,2.6-2.6l0,0V16.5C11.2,15,10.1,13.9,8.7,13.9
	L8.7,13.9z"/>
</svg>
