<?xml version="1.0" encoding="utf-8"?>
<!-- Generator: Adobe Illustrator 22.0.1, SVG Export Plug-In . SVG Version: 6.00 Build 0)  -->
<svg version="1.1" id="Livello_1" xmlns="http://www.w3.org/2000/svg" xmlns:xlink="http://www.w3.org/1999/xlink" x="0px" y="0px"
	 viewBox="0 0 48.3 48.4" style="enable-background:new 0 0 48.3 48.4;" xml:space="preserve">
<style type="text/css">
	.st0{fill:#E07100;}
</style>
<path class="st0" d="M22.3,47.4C8.5,27.5,6,25.5,6,18.1C6,8.1,14.1,0,24.1,0s18.1,8.1,18.1,18.1c0,7.3-2.5,9.4-16.3,29.3
	c-0.7,1-2.1,1.3-3.2,0.6C22.6,47.8,22.4,47.6,22.3,47.4L22.3,47.4z M24.1,25.7c4.2,0,7.6-3.4,7.6-7.6s-3.4-7.6-7.6-7.6
	s-7.6,3.4-7.6,7.6C16.6,22.3,20,25.7,24.1,25.7z"/>
</svg>
