<?xml version="1.0" encoding="utf-8"?>
<!-- Generator: Adobe Illustrator 22.0.1, SVG Export Plug-In . SVG Version: 6.00 Build 0)  -->
<svg version="1.1" id="Livello_1" xmlns="http://www.w3.org/2000/svg" xmlns:xlink="http://www.w3.org/1999/xlink" x="0px" y="0px"
	 viewBox="0 0 48.3 48.4" style="enable-background:new 0 0 48.3 48.4;" xml:space="preserve">
<style type="text/css">
	.st0{fill:#E07100;}
</style>
<path class="st0" d="M34.4,0.8H13.9c-2.4,0-4.4,2-4.4,4.4v38.1c0,2.4,2,4.4,4.4,4.4h20.5c2.4,0,4.4-2,4.4-4.4V5.2
	C38.8,2.7,36.8,0.8,34.4,0.8z M24.1,44.7c-1.6,0-2.9-1.3-2.9-2.9s1.3-2.9,2.9-2.9s2.9,1.3,2.9,2.9c0,0,0,0,0,0
	C27.1,43.4,25.8,44.7,24.1,44.7C24.2,44.7,24.2,44.7,24.1,44.7z M34.4,34.8c0,0.6-0.5,1.1-1.1,1.1H15c-0.6,0-1.1-0.5-1.1-1.1V6.3
	c0-0.6,0.5-1.1,1.1-1.1h18.3c0.6,0,1.1,0.5,1.1,1.1c0,0,0,0,0,0L34.4,34.8z"/>
</svg>
